<?xml version="1.0" encoding="UTF-8" standalone="no"?>
<!-- Created with Inkscape (http://www.inkscape.org/) -->

<svg
   id="svg2"
   version="1.1"
   inkscape:version="1.2.2 (b0a8486, 2022-12-01)"
   xml:space="preserve"
   width="313.40942"
   height="256.66995"
   viewBox="0 0 313.40942 256.66995"
   sodipodi:docname="die-graph.svg"
   xmlns:inkscape="http://www.inkscape.org/namespaces/inkscape"
   xmlns:sodipodi="http://sodipodi.sourceforge.net/DTD/sodipodi-0.dtd"
   xmlns="http://www.w3.org/2000/svg"
   xmlns:svg="http://www.w3.org/2000/svg"
   xmlns:rdf="http://www.w3.org/1999/02/22-rdf-syntax-ns#"
   xmlns:cc="http://creativecommons.org/ns#"
   xmlns:dc="http://purl.org/dc/elements/1.1/"><metadata
     id="metadata8"><rdf:RDF><cc:Work
         rdf:about=""><dc:format>image/svg+xml</dc:format><dc:type
           rdf:resource="http://purl.org/dc/dcmitype/StillImage" /></cc:Work></rdf:RDF></metadata><defs
     id="defs6"><marker
   style="overflow:visible"
   id="marker8535"
   refX="0"
   refY="0"
   orient="auto-start-reverse"
   inkscape:stockid="Arrow1L"
   markerWidth="8.75"
   markerHeight="5"
   viewBox="0 0 8.75 5"
   inkscape:isstock="true"
   inkscape:collect="always"
   preserveAspectRatio="xMidYMid"><path
     style="fill:context-stroke;fill-rule:evenodd;stroke:none"
     d="M 0,0 5,-5 -12.5,0 5,5 Z"
     id="path8533"
     transform="scale(-0.5)" /></marker><marker
   style="overflow:visible"
   id="marker8429"
   refX="0"
   refY="0"
   orient="auto-start-reverse"
   inkscape:stockid="Arrow1L"
   markerWidth="8.75"
   markerHeight="5"
   viewBox="0 0 8.75 5"
   inkscape:isstock="true"
   inkscape:collect="always"
   preserveAspectRatio="xMidYMid"><path
     style="fill:context-stroke;fill-rule:evenodd;stroke:none"
     d="M 0,0 5,-5 -12.5,0 5,5 Z"
     id="path8427"
     transform="scale(-0.5)" /></marker>




</defs><sodipodi:namedview
     pagecolor="#ffffff"
     bordercolor="#666666"
     borderopacity="1"
     objecttolerance="10"
     gridtolerance="10"
     guidetolerance="10"
     inkscape:pageopacity="0"
     inkscape:pageshadow="2"
     inkscape:window-width="1440"
     inkscape:window-height="878"
     id="namedview4"
     showgrid="false"
     inkscape:zoom="1.8187909"
     inkscape:cx="148.72518"
     inkscape:cy="102.26574"
     inkscape:window-x="0"
     inkscape:window-y="0"
     inkscape:window-maximized="0"
     inkscape:current-layer="g10"
     inkscape:showpageshadow="2"
     inkscape:pagecheckerboard="0"
     inkscape:deskcolor="#d1d1d1" /><g
     id="g10"
     inkscape:groupmode="layer"
     inkscape:label="fig-02"
     transform="matrix(1.25,0,0,-1.25,2.4358154,499.76611)"><path
       style="fill:#ffaacc;fill-rule:evenodd;stroke:#000000;stroke-width:0;stroke-linecap:butt;stroke-linejoin:miter;stroke-dasharray:none;stroke-opacity:1"
       d="m 23.111748,301.04264 0.205492,57.35467 7.465016,-65.39129 7.463486,21.82446 7.507336,-43.60711 7.464253,65.39052 7.464251,-87.17267 7.465525,65.38926 7.466291,10.89234 7.464251,-65.39053 7.464251,54.49895 7.353856,-87.17394 7.617734,108.95659 7.46552,-10.89234 7.46425,-43.60584 7.46502,10.89133 7.46476,-21.78367 7.46502,98.06552 7.50606,-119.84894 7.46476,76.2816 7.46629,-54.49793 7.464,43.60762 7.46527,-32.71629 7.4645,65.39002 7.46527,-87.1737 7.5053,65.39155 v -24.68018"
       id="path8774" /><g
       id="g14"
       transform="matrix(0.50990545,0,0,-0.50990545,0.06861116,400.1499)"><path
         d="M 45.191,81.883 V 378.098"
         style="fill:none;stroke:#000000;stroke-width:0.8;stroke-linecap:butt;stroke-linejoin:miter;stroke-miterlimit:4;stroke-dasharray:4.8, 4.8;stroke-dashoffset:0;stroke-opacity:1"
         id="path16"
         inkscape:connector-curvature="0"
         sodipodi:nodetypes="cc" /></g><g
       id="g18"
       transform="matrix(0.50990545,0,0,-0.50990545,0.06861116,400.1499)"><path
         d="m 104.309,127.82 -0.403,250.278"
         style="fill:none;stroke:#000000;stroke-width:0.8;stroke-linecap:butt;stroke-linejoin:miter;stroke-miterlimit:4;stroke-dasharray:4.8, 4.8;stroke-dashoffset:0;stroke-opacity:1"
         id="path20"
         inkscape:connector-curvature="0" /></g><g
       id="g22"
       transform="matrix(0.50990545,0,0,-0.50990545,0.06861116,400.1499)"><path
         d="m 177.473,173.07 -0.399,205.028"
         style="fill:none;stroke:#000000;stroke-width:0.8;stroke-linecap:butt;stroke-linejoin:miter;stroke-miterlimit:4;stroke-dasharray:4.8, 4.8;stroke-dashoffset:0;stroke-opacity:1"
         id="path24"
         inkscape:connector-curvature="0" /></g><g
       id="g26"
       transform="matrix(0.50990545,0,0,-0.50990545,0.06861116,400.1499)"><path
         d="m 250.734,210.953 -0.402,167.145"
         style="fill:none;stroke:#000000;stroke-width:0.8;stroke-linecap:butt;stroke-linejoin:miter;stroke-miterlimit:4;stroke-dasharray:4.8, 4.8;stroke-dashoffset:0;stroke-opacity:1"
         id="path28"
         inkscape:connector-curvature="0" /></g><g
       id="g30"
       transform="matrix(0.50990545,0,0,-0.50990545,0.06861116,400.1499)"><path
         d="m 323.945,251.461 -0.398,126.637"
         style="fill:none;stroke:#000000;stroke-width:0.8;stroke-linecap:butt;stroke-linejoin:miter;stroke-miterlimit:4;stroke-dasharray:4.8, 4.8;stroke-dashoffset:0;stroke-opacity:1"
         id="path32"
         inkscape:connector-curvature="0" /></g><g
       id="g34"
       transform="matrix(0.50990545,0,0,-0.50990545,0.06861116,400.1499)"><path
         d="M 397.062,140.141 396.66,378.098"
         style="fill:none;stroke:#000000;stroke-width:0.8;stroke-linecap:butt;stroke-linejoin:miter;stroke-miterlimit:4;stroke-dasharray:4.8, 4.8;stroke-dashoffset:0;stroke-opacity:1"
         id="path36"
         inkscape:connector-curvature="0" /></g><path
       d="m 23.31724,358.39731 7.465016,-65.39129 7.463486,21.82446 7.507338,-43.60711 7.465016,65.38976 7.463486,-87.17191 7.465525,65.38926 7.465016,10.89107 7.465526,-65.38926 7.465525,54.49819 7.504789,-87.17395 7.465527,108.9566 7.46552,-10.89158 7.46502,-43.6066 7.46553,10.89107 7.46348,-21.78265 7.46502,98.06552 7.50734,-119.84767 7.46348,76.28033 7.46502,-54.49818 7.46552,43.60711 7.46502,-32.71553 7.46552,65.39129 7.46553,-87.17395 7.50479,65.38926"
       style="fill:none;stroke:#ff2a2a;stroke-width:0.815849;stroke-linecap:butt;stroke-linejoin:miter;stroke-miterlimit:4;stroke-dasharray:none;stroke-opacity:1"
       id="path60"
       inkscape:connector-curvature="0" /><g
       id="g62"
       transform="matrix(0.50990545,0,0,-0.50990545,0.06861116,400.1499)"
       style="fill:#ff6600;stroke:#333333"><path
         d="m 51.3945,81.880956 c 0,2.984 -2.418,5.402 -5.398,5.402 -2.985,0 -5.403,-2.418 -5.403,-5.402 0,-2.981 2.418,-5.399 5.403,-5.399 2.98,0 5.398,2.418 5.398,5.399 z"
         style="fill:#ff6600;fill-opacity:1;fill-rule:nonzero;stroke:#333333;stroke-width:1.1988;stroke-linecap:butt;stroke-linejoin:miter;stroke-miterlimit:4;stroke-dasharray:none;stroke-opacity:1"
         id="path64"
         inkscape:connector-curvature="0" /></g><g
       id="g66"
       transform="matrix(0.50990545,0,0,-0.50990545,0.06861116,400.1499)"
       style="fill:#ff6600;stroke:#333333"><path
         d="m 65.633,210.125 c 0,2.98 -2.418,5.398 -5.399,5.398 -2.984,0 -5.402,-2.418 -5.402,-5.398 0,-2.984 2.418,-5.402 5.402,-5.402 2.981,0 5.399,2.418 5.399,5.402 z"
         style="fill:#ff6600;fill-opacity:1;fill-rule:nonzero;stroke:#333333;stroke-width:1.1988;stroke-linecap:butt;stroke-linejoin:miter;stroke-miterlimit:4;stroke-dasharray:none;stroke-opacity:1"
         id="path68"
         inkscape:connector-curvature="0" /></g><g
       id="g70"
       transform="matrix(0.50990545,0,0,-0.50990545,0.06861116,400.1499)"
       style="fill:#ff6600;stroke:#333333"><path
         d="m 80.273,167.324 c 0,2.981 -2.418,5.399 -5.402,5.399 -2.98,0 -5.398,-2.418 -5.398,-5.399 0,-2.984 2.418,-5.402 5.398,-5.402 2.984,0 5.402,2.418 5.402,5.402 z"
         style="fill:#ff6600;fill-opacity:1;fill-rule:nonzero;stroke:#333333;stroke-width:1.1988;stroke-linecap:butt;stroke-linejoin:miter;stroke-miterlimit:4;stroke-dasharray:none;stroke-opacity:1"
         id="path72"
         inkscape:connector-curvature="0" /></g><g
       id="g74"
       transform="matrix(0.50990545,0,0,-0.50990545,0.06861116,400.1499)"
       style="fill:#ff6600;stroke:#333333"><path
         d="m 94.992,252.844 c 0,2.98 -2.418,5.398 -5.398,5.398 -2.985,0 -5.403,-2.418 -5.403,-5.398 0,-2.981 2.418,-5.399 5.403,-5.399 2.98,0 5.398,2.418 5.398,5.399 z"
         style="fill:#ff6600;fill-opacity:1;fill-rule:nonzero;stroke:#333333;stroke-width:1.1988;stroke-linecap:butt;stroke-linejoin:miter;stroke-miterlimit:4;stroke-dasharray:none;stroke-opacity:1"
         id="path76"
         inkscape:connector-curvature="0" /></g><g
       id="g78"
       transform="matrix(0.50990545,0,0,-0.50990545,0.06861116,400.1499)"
       style="fill:#ff6600;stroke:#333333"><path
         d="m 109.633,124.605 c 0,2.981 -2.418,5.399 -5.399,5.399 -2.984,0 -5.402,-2.418 -5.402,-5.399 0,-2.984 2.418,-5.402 5.402,-5.402 2.981,0 5.399,2.418 5.399,5.402 z"
         style="fill:#ff6600;fill-opacity:1;fill-rule:nonzero;stroke:#333333;stroke-width:1.1988;stroke-linecap:butt;stroke-linejoin:miter;stroke-miterlimit:4;stroke-dasharray:none;stroke-opacity:1"
         id="path80"
         inkscape:connector-curvature="0" /></g><g
       id="g82"
       transform="matrix(0.50990545,0,0,-0.50990545,0.06861116,400.1499)"
       style="fill:#ff6600;stroke:#333333"><path
         d="m 124.273,295.562 c 0,2.985 -2.418,5.403 -5.402,5.403 -2.98,0 -5.398,-2.418 -5.398,-5.403 0,-2.98 2.418,-5.398 5.398,-5.398 2.984,0 5.402,2.418 5.402,5.398 z"
         style="fill:#ff6600;fill-opacity:1;fill-rule:nonzero;stroke:#333333;stroke-width:1.1988;stroke-linecap:butt;stroke-linejoin:miter;stroke-miterlimit:4;stroke-dasharray:none;stroke-opacity:1"
         id="path84"
         inkscape:connector-curvature="0" /></g><g
       id="g86"
       transform="matrix(0.50990545,0,0,-0.50990545,0.06861116,400.1499)"
       style="fill:#ff6600;stroke:#333333"><path
         d="m 138.914,167.324 c 0,2.981 -2.418,5.399 -5.402,5.399 -2.981,0 -5.399,-2.418 -5.399,-5.399 0,-2.984 2.418,-5.402 5.399,-5.402 2.984,0 5.402,2.418 5.402,5.402 z"
         style="fill:#ff6600;fill-opacity:1;fill-rule:nonzero;stroke:#333333;stroke-width:1.1988;stroke-linecap:butt;stroke-linejoin:miter;stroke-miterlimit:4;stroke-dasharray:none;stroke-opacity:1"
         id="path88"
         inkscape:connector-curvature="0" /></g><g
       id="g90"
       transform="matrix(0.50990545,0,0,-0.50990545,0.06861116,400.1499)"
       style="fill:#ff6600;stroke:#333333"><path
         d="m 153.555,145.965 c 0,2.98 -2.418,5.398 -5.403,5.398 -2.98,0 -5.398,-2.418 -5.398,-5.398 0,-2.985 2.418,-5.403 5.398,-5.403 2.985,0 5.403,2.418 5.403,5.403 z"
         style="fill:#ff6600;fill-opacity:1;fill-rule:nonzero;stroke:#333333;stroke-width:1.1988;stroke-linecap:butt;stroke-linejoin:miter;stroke-miterlimit:4;stroke-dasharray:none;stroke-opacity:1"
         id="path92"
         inkscape:connector-curvature="0" /></g><g
       id="g94"
       transform="matrix(0.50990545,0,0,-0.50990545,0.06861116,400.1499)"
       style="fill:#ff6600;stroke:#333333"><path
         d="m 168.191,274.203 c 0,2.985 -2.418,5.402 -5.398,5.402 -2.981,0 -5.398,-2.417 -5.398,-5.402 0,-2.98 2.417,-5.398 5.398,-5.398 2.98,0 5.398,2.418 5.398,5.398 z"
         style="fill:#ff6600;fill-opacity:1;fill-rule:nonzero;stroke:#333333;stroke-width:1.1988;stroke-linecap:butt;stroke-linejoin:miter;stroke-miterlimit:4;stroke-dasharray:none;stroke-opacity:1"
         id="path96"
         inkscape:connector-curvature="0" /></g><g
       id="g98"
       transform="matrix(0.50990545,0,0,-0.50990545,0.06861116,400.1499)"
       style="fill:#ff6600;stroke:#333333"><path
         d="m 182.832,167.324 c 0,2.981 -2.418,5.399 -5.398,5.399 -2.985,0 -5.403,-2.418 -5.403,-5.399 0,-2.984 2.418,-5.402 5.403,-5.402 2.98,0 5.398,2.418 5.398,5.402 z"
         style="fill:#ff6600;fill-opacity:1;fill-rule:nonzero;stroke:#333333;stroke-width:1.1988;stroke-linecap:butt;stroke-linejoin:miter;stroke-miterlimit:4;stroke-dasharray:none;stroke-opacity:1"
         id="path100"
         inkscape:connector-curvature="0" /></g><g
       id="g102"
       transform="matrix(0.50990545,0,0,-0.50990545,0.06861116,400.1499)"
       style="fill:#ff6600;stroke:#333333"><path
         d="m 212.191,124.605 c 0,2.981 -2.418,5.399 -5.398,5.399 -2.981,0 -5.398,-2.418 -5.398,-5.399 0,-2.984 2.417,-5.402 5.398,-5.402 2.98,0 5.398,2.418 5.398,5.402 z"
         style="fill:#ff6600;fill-opacity:1;fill-rule:nonzero;stroke:#333333;stroke-width:1.1988;stroke-linecap:butt;stroke-linejoin:miter;stroke-miterlimit:4;stroke-dasharray:none;stroke-opacity:1"
         id="path104"
         inkscape:connector-curvature="0" /></g><g
       id="g106"
       transform="matrix(0.50990545,0,0,-0.50990545,0.06861116,400.1499)"
       style="fill:#ff6600;stroke:#333333"><path
         d="m 226.832,145.965 c 0,2.98 -2.418,5.398 -5.398,5.398 -2.985,0 -5.403,-2.418 -5.403,-5.398 0,-2.985 2.418,-5.403 5.403,-5.403 2.98,0 5.398,2.418 5.398,5.403 z"
         style="fill:#ff6600;fill-opacity:1;fill-rule:nonzero;stroke:#333333;stroke-width:1.1988;stroke-linecap:butt;stroke-linejoin:miter;stroke-miterlimit:4;stroke-dasharray:none;stroke-opacity:1"
         id="path108"
         inkscape:connector-curvature="0" /></g><g
       id="g110"
       transform="matrix(0.50990545,0,0,-0.50990545,0.06861116,400.1499)"
       style="fill:#ff6600;stroke:#333333"><path
         d="m 241.473,231.484 c 0,2.981 -2.418,5.399 -5.399,5.399 -2.984,0 -5.402,-2.418 -5.402,-5.399 0,-2.984 2.418,-5.402 5.402,-5.402 2.981,0 5.399,2.418 5.399,5.402 z"
         style="fill:#ff6600;fill-opacity:1;fill-rule:nonzero;stroke:#333333;stroke-width:1.1988;stroke-linecap:butt;stroke-linejoin:miter;stroke-miterlimit:4;stroke-dasharray:none;stroke-opacity:1"
         id="path112"
         inkscape:connector-curvature="0" /></g><g
       id="g114"
       transform="matrix(0.50990545,0,0,-0.50990545,0.06861116,400.1499)"
       style="fill:#ff6600;stroke:#333333"><path
         d="m 256.113,210.125 c 0,2.98 -2.418,5.398 -5.398,5.398 -2.985,0 -5.403,-2.418 -5.403,-5.398 0,-2.984 2.418,-5.402 5.403,-5.402 2.98,0 5.398,2.418 5.398,5.402 z"
         style="fill:#ff6600;fill-opacity:1;fill-rule:nonzero;stroke:#333333;stroke-width:1.1988;stroke-linecap:butt;stroke-linejoin:miter;stroke-miterlimit:4;stroke-dasharray:none;stroke-opacity:1"
         id="path116"
         inkscape:connector-curvature="0" /></g><g
       id="g118"
       transform="matrix(0.50990545,0,0,-0.50990545,0.06861116,400.1499)"
       style="fill:#ff6600;stroke:#333333"><path
         d="m 270.754,252.844 c 0,2.98 -2.418,5.398 -5.402,5.398 -2.981,0 -5.399,-2.418 -5.399,-5.398 0,-2.981 2.418,-5.399 5.399,-5.399 2.984,0 5.402,2.418 5.402,5.399 z"
         style="fill:#ff6600;fill-opacity:1;fill-rule:nonzero;stroke:#333333;stroke-width:1.1988;stroke-linecap:butt;stroke-linejoin:miter;stroke-miterlimit:4;stroke-dasharray:none;stroke-opacity:1"
         id="path120"
         inkscape:connector-curvature="0" /></g><g
       id="g122"
       transform="matrix(0.50990545,0,0,-0.50990545,0.06861116,400.1499)"
       style="fill:#ff6600;stroke:#333333"><path
         d="m 285.395,60.523 c 0,2.985 -2.418,5.399 -5.403,5.399 -2.98,0 -5.398,-2.414 -5.398,-5.399 0,-2.98 2.418,-5.398 5.398,-5.398 2.985,0 5.403,2.418 5.403,5.398 z"
         style="fill:#ff6600;fill-opacity:1;fill-rule:nonzero;stroke:#333333;stroke-width:1.1988;stroke-linecap:butt;stroke-linejoin:miter;stroke-miterlimit:4;stroke-dasharray:none;stroke-opacity:1"
         id="path124"
         inkscape:connector-curvature="0" /></g><g
       id="g126"
       transform="matrix(0.50990545,0,0,-0.50990545,0.06861116,400.1499)"
       style="fill:#ff6600;stroke:#333333"><path
         d="m 300.113,295.562 c 0,2.985 -2.418,5.403 -5.398,5.403 -2.985,0 -5.403,-2.418 -5.403,-5.403 0,-2.98 2.418,-5.398 5.403,-5.398 2.98,0 5.398,2.418 5.398,5.398 z"
         style="fill:#ff6600;fill-opacity:1;fill-rule:nonzero;stroke:#333333;stroke-width:1.1988;stroke-linecap:butt;stroke-linejoin:miter;stroke-miterlimit:4;stroke-dasharray:none;stroke-opacity:1"
         id="path128"
         inkscape:connector-curvature="0" /></g><g
       id="g130"
       transform="matrix(0.50990545,0,0,-0.50990545,0.06861116,400.1499)"
       style="fill:#ff6600;stroke:#333333"><path
         d="m 314.754,145.965 c 0,2.98 -2.418,5.398 -5.402,5.398 -2.981,0 -5.399,-2.418 -5.399,-5.398 0,-2.985 2.418,-5.403 5.399,-5.403 2.984,0 5.402,2.418 5.402,5.403 z"
         style="fill:#ff6600;fill-opacity:1;fill-rule:nonzero;stroke:#333333;stroke-width:1.1988;stroke-linecap:butt;stroke-linejoin:miter;stroke-miterlimit:4;stroke-dasharray:none;stroke-opacity:1"
         id="path132"
         inkscape:connector-curvature="0" /></g><g
       id="g134"
       transform="matrix(0.50990545,0,0,-0.50990545,0.06861116,400.1499)"
       style="fill:#ff6600;stroke:#333333"><path
         d="m 329.395,252.844 c 0,2.98 -2.418,5.398 -5.403,5.398 -2.98,0 -5.398,-2.418 -5.398,-5.398 0,-2.981 2.418,-5.399 5.398,-5.399 2.985,0 5.403,2.418 5.403,5.399 z"
         style="fill:#ff6600;fill-opacity:1;fill-rule:nonzero;stroke:#333333;stroke-width:1.1988;stroke-linecap:butt;stroke-linejoin:miter;stroke-miterlimit:4;stroke-dasharray:none;stroke-opacity:1"
         id="path136"
         inkscape:connector-curvature="0" /></g><g
       id="g138"
       transform="matrix(0.50990545,0,0,-0.50990545,0.06861116,400.1499)"
       style="fill:#ff6600;stroke:#333333"><path
         d="m 344.031,167.324 c 0,2.981 -2.414,5.399 -5.398,5.399 -2.981,0 -5.399,-2.418 -5.399,-5.399 0,-2.984 2.418,-5.402 5.399,-5.402 2.984,0 5.398,2.418 5.398,5.402 z"
         style="fill:#ff6600;fill-opacity:1;fill-rule:nonzero;stroke:#333333;stroke-width:1.1988;stroke-linecap:butt;stroke-linejoin:miter;stroke-miterlimit:4;stroke-dasharray:none;stroke-opacity:1"
         id="path140"
         inkscape:connector-curvature="0" /></g><g
       id="g142"
       transform="matrix(0.50990545,0,0,-0.50990545,0.06861116,400.1499)"
       style="fill:#ff6600;stroke:#333333"><path
         d="m 358.672,231.484 c 0,2.981 -2.418,5.399 -5.399,5.399 -2.984,0 -5.402,-2.418 -5.402,-5.399 0,-2.984 2.418,-5.402 5.402,-5.402 2.981,0 5.399,2.418 5.399,5.402 z"
         style="fill:#ff6600;fill-opacity:1;fill-rule:nonzero;stroke:#333333;stroke-width:1.1988;stroke-linecap:butt;stroke-linejoin:miter;stroke-miterlimit:4;stroke-dasharray:none;stroke-opacity:1"
         id="path144"
         inkscape:connector-curvature="0" /></g><g
       id="g146"
       transform="matrix(0.50990545,0,0,-0.50990545,0.06861116,400.1499)"
       style="fill:#ff6600;stroke:#333333"><path
         d="m 373.312,103.242 c 0,2.985 -2.417,5.403 -5.398,5.403 -2.984,0 -5.402,-2.418 -5.402,-5.403 0,-2.98 2.418,-5.398 5.402,-5.398 2.981,0 5.398,2.418 5.398,5.398 z"
         style="fill:#ff6600;fill-opacity:1;fill-rule:nonzero;stroke:#333333;stroke-width:1.1988;stroke-linecap:butt;stroke-linejoin:miter;stroke-miterlimit:4;stroke-dasharray:none;stroke-opacity:1"
         id="path148"
         inkscape:connector-curvature="0" /></g><g
       id="g150"
       transform="matrix(0.50990545,0,0,-0.50990545,0.06861116,400.1499)"
       style="fill:#ff6600;stroke:#333333"><path
         d="m 387.953,274.203 c 0,2.985 -2.418,5.402 -5.398,5.402 -2.985,0 -5.403,-2.417 -5.403,-5.402 0,-2.98 2.418,-5.398 5.403,-5.398 2.98,0 5.398,2.418 5.398,5.398 z"
         style="fill:#ff6600;fill-opacity:1;fill-rule:nonzero;stroke:#333333;stroke-width:1.1988;stroke-linecap:butt;stroke-linejoin:miter;stroke-miterlimit:4;stroke-dasharray:none;stroke-opacity:1"
         id="path152"
         inkscape:connector-curvature="0" /></g><g
       id="g154"
       transform="matrix(0.50990545,0,0,-0.50990545,0.06861116,400.1499)"
       style="fill:#ff6600;stroke:#333333"><path
         d="m 402.672,145.965 c 0,2.98 -2.418,5.398 -5.399,5.398 -2.984,0 -5.402,-2.418 -5.402,-5.398 0,-2.985 2.418,-5.403 5.402,-5.403 2.981,0 5.399,2.418 5.399,5.403 z"
         style="fill:#ff6600;fill-opacity:1;fill-rule:nonzero;stroke:#333333;stroke-width:1.1988;stroke-linecap:butt;stroke-linejoin:miter;stroke-miterlimit:4;stroke-dasharray:none;stroke-opacity:1"
         id="path156"
         inkscape:connector-curvature="0" /></g><g
       id="g162"
       transform="matrix(0.50990545,0,0,-0.50990545,0.06861116,400.1499)"><path
         d="M 38.074,338.285 H 30.871"
         style="fill:none;stroke:#000000;stroke-width:0.8;stroke-linecap:butt;stroke-linejoin:miter;stroke-miterlimit:4;stroke-dasharray:none;stroke-opacity:1"
         id="path164"
         inkscape:connector-curvature="0" /></g><g
       id="g166"
       transform="matrix(0.50990545,0,0,-0.50990545,0.06861116,400.1499)"><path
         d="M 38.074,295.562 H 30.871"
         style="fill:none;stroke:#000000;stroke-width:0.8;stroke-linecap:butt;stroke-linejoin:miter;stroke-miterlimit:4;stroke-dasharray:none;stroke-opacity:1"
         id="path168"
         inkscape:connector-curvature="0" /></g><g
       id="g170"
       transform="matrix(0.50990545,0,0,-0.50990545,0.06861116,400.1499)"><path
         d="M 38.074,252.844 H 30.871"
         style="fill:none;stroke:#000000;stroke-width:0.8;stroke-linecap:butt;stroke-linejoin:miter;stroke-miterlimit:4;stroke-dasharray:none;stroke-opacity:1"
         id="path172"
         inkscape:connector-curvature="0" /></g><g
       id="g174"
       transform="matrix(0.50990545,0,0,-0.50990545,0.06861116,400.1499)"><path
         d="M 38.074,210.043 H 30.871"
         style="fill:none;stroke:#000000;stroke-width:0.8;stroke-linecap:butt;stroke-linejoin:miter;stroke-miterlimit:4;stroke-dasharray:none;stroke-opacity:1"
         id="path176"
         inkscape:connector-curvature="0" /></g><g
       id="g178"
       transform="matrix(0.50990545,0,0,-0.50990545,0.06861116,400.1499)"><path
         d="M 38.074,167.324 H 30.871"
         style="fill:none;stroke:#000000;stroke-width:0.8;stroke-linecap:butt;stroke-linejoin:miter;stroke-miterlimit:4;stroke-dasharray:none;stroke-opacity:1"
         id="path180"
         inkscape:connector-curvature="0" /></g><g
       id="g182"
       transform="matrix(0.50990545,0,0,-0.50990545,0.06861116,400.1499)"><path
         d="M 38.074,124.605 H 30.871"
         style="fill:none;stroke:#000000;stroke-width:0.8;stroke-linecap:butt;stroke-linejoin:miter;stroke-miterlimit:4;stroke-dasharray:none;stroke-opacity:1"
         id="path184"
         inkscape:connector-curvature="0" /></g><g
       id="g186"
       transform="matrix(0.50990545,0,0,-0.50990545,0.06861116,400.1499)"><path
         d="M 38.074,81.883 H 30.871"
         style="fill:none;stroke:#000000;stroke-width:0.8;stroke-linecap:butt;stroke-linejoin:miter;stroke-miterlimit:4;stroke-dasharray:none;stroke-opacity:1"
         id="path188"
         inkscape:connector-curvature="0" /></g><g
       id="g190"
       transform="matrix(0.50990545,0,0,-0.50990545,0.06861116,400.1499)"><path
         d="M 38.074,39.164 H 30.871"
         style="fill:none;stroke:#000000;stroke-width:0.8;stroke-linecap:butt;stroke-linejoin:miter;stroke-miterlimit:4;stroke-dasharray:none;stroke-opacity:1"
         id="path192"
         inkscape:connector-curvature="0" /></g><g
       id="g194"
       transform="matrix(0.50990545,0,0,-0.50990545,0.06861116,400.1499)"
       style="stroke:#333333;stroke-width:1.20945;stroke-linecap:round;stroke-dasharray:none"><path
         d="M 31.035,381.00668 V 8.22"
         style="fill:none;stroke:#333333;stroke-width:1.20945;stroke-linecap:round;stroke-linejoin:miter;stroke-miterlimit:4;stroke-dasharray:none;stroke-opacity:1;marker-end:url(#marker8429)"
         id="path196"
         inkscape:connector-curvature="0"
         sodipodi:nodetypes="cc" /></g><g
       id="g202"
       transform="matrix(0.50990545,0,0,-0.50990545,0.06861116,400.1499)"
       style="stroke:#333333;stroke-width:1.20945;stroke-linecap:round;stroke-dasharray:none"><path
         d="m 31.098,381.004 h 422.4"
         style="fill:none;stroke:#333333;stroke-width:1.20945;stroke-linecap:round;stroke-linejoin:miter;stroke-miterlimit:4;stroke-dasharray:none;stroke-opacity:1;marker-end:url(#marker8535)"
         id="path204"
         inkscape:connector-curvature="0"
         sodipodi:nodetypes="cc" /></g><g
       id="g210"
       transform="matrix(0.50990545,0,0,-0.50990545,0.06861116,400.1499)"
       style="fill:#ff6600;stroke:#333333"><path
         d="m 197.254,338.285 c 0,2.981 -2.418,5.399 -5.399,5.399 -2.984,0 -5.402,-2.418 -5.402,-5.399 0,-2.984 2.418,-5.402 5.402,-5.402 2.981,0 5.399,2.418 5.399,5.402 z"
         style="fill:#ff6600;fill-opacity:1;fill-rule:nonzero;stroke:#333333;stroke-width:1.1988;stroke-linecap:butt;stroke-linejoin:miter;stroke-miterlimit:4;stroke-dasharray:none;stroke-opacity:1"
         id="path212"
         inkscape:connector-curvature="0" /></g><g
       id="g218"
       transform="matrix(0.50990545,0,0,-0.50990545,0.06861116,400.1499)"><path
         d="m 45.059,381.004 v -3.602 m 14.64,3.602 v -3.602 m 14.641,3.602 v -3.602 m 14.719,3.602 v -3.602 m 14.64,3.602 v -7.199"
         style="fill:none;stroke:#000000;stroke-width:0.8;stroke-linecap:butt;stroke-linejoin:miter;stroke-miterlimit:4;stroke-dasharray:none;stroke-opacity:1"
         id="path220"
         inkscape:connector-curvature="0" /></g><g
       id="g222"
       transform="matrix(0.50990545,0,0,-0.50990545,0.06861116,400.1499)"><path
         d="m 118.34,381.004 v -3.602 m 14.64,3.602 v -3.602 m 14.641,3.602 v -3.602 m 14.637,3.602 v -3.602 m 14.64,3.602 v -7.199"
         style="fill:none;stroke:#000000;stroke-width:0.8;stroke-linecap:butt;stroke-linejoin:miter;stroke-miterlimit:4;stroke-dasharray:none;stroke-opacity:1"
         id="path224"
         inkscape:connector-curvature="0" /></g><g
       id="g226"
       transform="matrix(0.50990545,0,0,-0.50990545,0.06861116,400.1499)"><path
         d="m 191.621,381.004 v -3.602 m 14.637,3.602 v -3.602 m 14.64,3.602 v -3.602 m 14.641,3.602 v -3.602 m 14.641,3.602 v -7.199"
         style="fill:none;stroke:#000000;stroke-width:0.8;stroke-linecap:butt;stroke-linejoin:miter;stroke-miterlimit:4;stroke-dasharray:none;stroke-opacity:1"
         id="path228"
         inkscape:connector-curvature="0" /></g><g
       id="g230"
       transform="matrix(0.50990545,0,0,-0.50990545,0.06861116,400.1499)"><path
         d="m 264.82,381.004 v -3.602 m 14.641,3.602 v -3.602 m 14.719,3.602 v -3.602 m 14.64,3.602 v -3.602 m 14.641,3.602 v -7.199"
         style="fill:none;stroke:#000000;stroke-width:0.8;stroke-linecap:butt;stroke-linejoin:miter;stroke-miterlimit:4;stroke-dasharray:none;stroke-opacity:1"
         id="path232"
         inkscape:connector-curvature="0" /></g><g
       id="g234"
       transform="matrix(0.50990545,0,0,-0.50990545,0.06861116,400.1499)"><path
         d="m 338.098,381.004 v -3.602 m 14.64,3.602 v -3.602 m 14.641,3.602 v -3.602 m 14.641,3.602 v -3.602 m 14.718,3.602 v -7.199"
         style="fill:none;stroke:#000000;stroke-width:0.8;stroke-linecap:butt;stroke-linejoin:miter;stroke-miterlimit:4;stroke-dasharray:none;stroke-opacity:1"
         id="path236"
         inkscape:connector-curvature="0" /></g><g
       id="g238"
       transform="matrix(0.50990545,0,0,-0.50990545,0.06861116,400.1499)"><path
         d="m 440.793,381.004 v -3.602 m -14.641,3.602 v -3.602 m -14.64,3.602 v -3.602"
         style="fill:none;stroke:#000000;stroke-width:0.8;stroke-linecap:butt;stroke-linejoin:miter;stroke-miterlimit:4;stroke-dasharray:none;stroke-opacity:1"
         id="path240"
         inkscape:connector-curvature="0" /></g><g
       id="g242"
       transform="matrix(0.50990545,0,0,-0.50990545,0.06861116,400.1499)"
       style="stroke:#333333;stroke-width:0.755906;stroke-linecap:round;stroke-dasharray:none"><path
         d="M 437.191,379.133 V 196.957"
         style="fill:none;stroke:#333333;stroke-width:0.755906;stroke-linecap:round;stroke-linejoin:miter;stroke-miterlimit:4;stroke-dasharray:none;stroke-opacity:1"
         id="path244"
         inkscape:connector-curvature="0" /></g><path
       d="m 90.24437,303.94715 c 0,1.63119 0.03161,2.29865 0.07139,1.48178 0.03773,-0.81482 0.03773,-2.14925 0,-2.96357 -0.03977,-0.81483 -0.07139,-0.14736 -0.07139,1.48179 z"
       style="fill:#ff8080;fill-opacity:1;fill-rule:nonzero;stroke:none;stroke-width:0.509905"
       id="path254"
       inkscape:connector-curvature="0" /><text
       transform="scale(1,-1)"
       style="font-style:normal;font-variant:normal;font-weight:normal;font-stretch:normal;font-size:8.53333334px;line-height:0%;font-family:'EB Garamond';-inkscape-font-specification:'EB Garamond, Normal';font-variant-ligatures:normal;font-variant-caps:normal;font-variant-numeric:normal;font-variant-east-asian:normal;writing-mode:lr-tb;baseline-shift:baseline;fill:#000000;fill-opacity:1;fill-rule:nonzero;stroke:none;stroke-width:0.509905"
       id="text298"
       x="19.788694"
       y="-385.57755"><tspan
   x="19.788694"
   y="-385.57755"
   id="tspan300"
   style="font-style:italic;font-variant:normal;font-weight:normal;font-stretch:normal;font-family:'EB Garamond';-inkscape-font-specification:'EB Garamond, Normal';font-variant-ligatures:normal;font-variant-caps:normal;font-variant-numeric:normal;font-variant-east-asian:normal;baseline-shift:baseline;stroke-width:0.509905;font-size:8.53333334px">M<tspan
   style="baseline-shift:sub;stroke-width:0.509905;font-size:8.53333334px"
   id="tspan22448"
   dx="-0.46533233">k</tspan></tspan>/100</text><g
       id="g158"
       transform="matrix(0.50990545,0,0,-0.50990545,0.06861116,400.1499)"
       style="stroke-width:0.907087;stroke-dasharray:none"><path
         d="M 31.035,194.61334 438.688,195.164"
         style="fill:none;stroke:#ff0000;stroke-width:0.907087;stroke-linecap:round;stroke-linejoin:miter;stroke-miterlimit:4;stroke-dasharray:none;stroke-opacity:1"
         id="path160"
         inkscape:connector-curvature="0"
         sodipodi:nodetypes="cc" /></g><rect
       style="fill:#ffffff;fill-rule:evenodd;stroke:#ff80b2;stroke-width:0;stroke-linecap:round;stroke-linejoin:round;stroke-dasharray:none;stop-color:#000000"
       id="rect8828"
       width="33.119793"
       height="7.9932146"
       x="208.90997"
       y="-253.27419"
       transform="scale(1,-1)" /><text
       transform="scale(1,-1)"
       style="font-style:normal;font-variant:normal;font-weight:normal;font-stretch:normal;font-size:8.53333px;line-height:0%;font-family:'EB Garamond';-inkscape-font-specification:'EB Garamond, Normal';font-variant-ligatures:normal;font-variant-caps:normal;font-variant-numeric:normal;font-variant-east-asian:normal;writing-mode:lr-tb;fill:#000000;fill-opacity:1;fill-rule:nonzero;stroke:none;stroke-width:0.509905"
       id="text314"
       y="-247.30975"
       x="210.54964"><tspan
         sodipodi:role="line"
         id="tspan316"
         style="font-style:normal;font-variant:normal;font-weight:normal;font-stretch:normal;font-size:8.53333px;line-height:1.25;font-family:'EB Garamond';-inkscape-font-specification:'EB Garamond, Normal';font-variant-ligatures:normal;font-variant-caps:normal;font-variant-numeric:normal;font-variant-east-asian:normal;stroke-width:0.509905"
         x="210.54964"
         y="-247.30975">1/6 = 0.167</tspan></text><text
       transform="scale(1,-1)"
       style="font-style:normal;font-variant:normal;font-weight:normal;font-stretch:normal;font-size:8.53333px;line-height:0%;font-family:'EB Garamond';-inkscape-font-specification:'EB Garamond, Normal';font-variant-ligatures:normal;font-variant-caps:normal;font-variant-numeric:normal;font-variant-east-asian:normal;writing-mode:lr-tb;baseline-shift:baseline;fill:#000000;fill-opacity:1;fill-rule:nonzero;stroke:none;stroke-width:0.509905"
       id="text656"
       x="-2.3326523"
       y="-377.36954">0.24</text><text
       transform="scale(1,-1)"
       style="font-style:normal;font-variant:normal;font-weight:normal;font-stretch:normal;font-size:8.53333px;line-height:0%;font-family:'EB Garamond';-inkscape-font-specification:'EB Garamond, Normal';font-variant-ligatures:normal;font-variant-caps:normal;font-variant-numeric:normal;font-variant-east-asian:normal;writing-mode:lr-tb;baseline-shift:baseline;fill:#000000;fill-opacity:1;fill-rule:nonzero;stroke:none;stroke-width:0.509905"
       id="text658"
       x="-2.3326523"
       y="-356.56952">0.22</text><text
       transform="scale(1,-1)"
       style="font-style:normal;font-variant:normal;font-weight:normal;font-stretch:normal;font-size:8.53333px;line-height:0%;font-family:'EB Garamond';-inkscape-font-specification:'EB Garamond, Normal';font-variant-ligatures:normal;font-variant-caps:normal;font-variant-numeric:normal;font-variant-east-asian:normal;writing-mode:lr-tb;baseline-shift:baseline;fill:#000000;fill-opacity:1;fill-rule:nonzero;stroke:none;stroke-width:0.509905"
       id="text660"
       x="-2.3326523"
       y="-356.56952">0.22</text><text
       transform="scale(1,-1)"
       style="font-style:normal;font-variant:normal;font-weight:normal;font-stretch:normal;font-size:8.53333px;line-height:0%;font-family:'EB Garamond';-inkscape-font-specification:'EB Garamond, Normal';font-variant-ligatures:normal;font-variant-caps:normal;font-variant-numeric:normal;font-variant-east-asian:normal;writing-mode:lr-tb;baseline-shift:baseline;fill:#000000;fill-opacity:1;fill-rule:nonzero;stroke:none;stroke-width:0.509905"
       id="text662"
       x="-2.2558522"
       y="-333.86029">0.20</text><text
       transform="scale(1,-1)"
       style="font-style:normal;font-variant:normal;font-weight:normal;font-stretch:normal;font-size:8.53333px;line-height:0%;font-family:'EB Garamond';-inkscape-font-specification:'EB Garamond, Normal';font-variant-ligatures:normal;font-variant-caps:normal;font-variant-numeric:normal;font-variant-east-asian:normal;writing-mode:lr-tb;baseline-shift:baseline;fill:#000000;fill-opacity:1;fill-rule:nonzero;stroke:none;stroke-width:0.509905"
       id="text664"
       x="-2.2558522"
       y="-311.46033">0.18</text><text
       transform="scale(1,-1)"
       style="font-style:normal;font-variant:normal;font-weight:normal;font-stretch:normal;font-size:8.53333px;line-height:0%;font-family:'EB Garamond';-inkscape-font-specification:'EB Garamond, Normal';font-variant-ligatures:normal;font-variant-caps:normal;font-variant-numeric:normal;font-variant-east-asian:normal;writing-mode:lr-tb;baseline-shift:baseline;fill:#000000;fill-opacity:1;fill-rule:nonzero;stroke:none;stroke-width:0.509905"
       id="text666"
       x="-2.2558522"
       y="-290.66031">0.16</text><text
       transform="scale(1,-1)"
       style="font-style:normal;font-variant:normal;font-weight:normal;font-stretch:normal;font-size:8.53333px;line-height:0%;font-family:'EB Garamond';-inkscape-font-specification:'EB Garamond, Normal';font-variant-ligatures:normal;font-variant-caps:normal;font-variant-numeric:normal;font-variant-east-asian:normal;writing-mode:lr-tb;baseline-shift:baseline;fill:#000000;fill-opacity:1;fill-rule:nonzero;stroke:none;stroke-width:0.509905"
       id="text668"
       x="-2.2558522"
       y="-269.86035">0.14</text><text
       transform="scale(1,-1)"
       style="font-style:normal;font-variant:normal;font-weight:normal;font-stretch:normal;font-size:8.53333px;line-height:0%;font-family:'EB Garamond';-inkscape-font-specification:'EB Garamond, Normal';font-variant-ligatures:normal;font-variant-caps:normal;font-variant-numeric:normal;font-variant-east-asian:normal;writing-mode:lr-tb;baseline-shift:baseline;fill:#000000;fill-opacity:1;fill-rule:nonzero;stroke:none;stroke-width:0.509905"
       id="text670"
       x="-2.2558522"
       y="-245.86032">0.12</text><text
       transform="scale(1,-1)"
       style="font-style:normal;font-variant:normal;font-weight:normal;font-stretch:normal;font-size:8.53333px;line-height:0%;font-family:'EB Garamond';-inkscape-font-specification:'EB Garamond, Normal';font-variant-ligatures:normal;font-variant-caps:normal;font-variant-numeric:normal;font-variant-east-asian:normal;writing-mode:lr-tb;baseline-shift:baseline;fill:#000000;fill-opacity:1;fill-rule:nonzero;stroke:none;stroke-width:0.509905"
       id="text672"
       x="-2.2558522"
       y="-225.0603">0.10</text><text
       transform="scale(1,-1)"
       style="font-style:normal;font-variant:normal;font-weight:normal;font-stretch:normal;font-size:8.53333px;line-height:0%;font-family:'EB Garamond';-inkscape-font-specification:'EB Garamond, Normal';font-variant-ligatures:normal;font-variant-caps:normal;font-variant-numeric:normal;font-variant-east-asian:normal;writing-mode:lr-tb;baseline-shift:baseline;fill:#000000;fill-opacity:1;fill-rule:nonzero;stroke:none;stroke-width:0.509905"
       id="text674"
       x="20.392479"
       y="-194.80118">1</text><text
       transform="scale(1,-1)"
       style="font-style:normal;font-variant:normal;font-weight:normal;font-stretch:normal;font-size:8.53333px;line-height:0%;font-family:'EB Garamond';-inkscape-font-specification:'EB Garamond, Normal';font-variant-ligatures:normal;font-variant-caps:normal;font-variant-numeric:normal;font-variant-east-asian:normal;writing-mode:lr-tb;baseline-shift:baseline;fill:#000000;fill-opacity:1;fill-rule:nonzero;stroke:none;stroke-width:0.509905"
       id="text676"
       x="50.787659"
       y="-194.89581">5</text><text
       transform="scale(1,-1)"
       style="font-style:normal;font-variant:normal;font-weight:normal;font-stretch:normal;font-size:8.53333px;line-height:0%;font-family:'EB Garamond';-inkscape-font-specification:'EB Garamond, Normal';font-variant-ligatures:normal;font-variant-caps:normal;font-variant-numeric:normal;font-variant-east-asian:normal;writing-mode:lr-tb;baseline-shift:baseline;fill:#000000;fill-opacity:1;fill-rule:nonzero;stroke:none;stroke-width:0.509905"
       id="text678"
       x="85.544228"
       y="-194.80118">10</text><text
       transform="scale(1,-1)"
       style="font-style:normal;font-variant:normal;font-weight:normal;font-stretch:normal;font-size:8.53333px;line-height:0%;font-family:'EB Garamond';-inkscape-font-specification:'EB Garamond, Normal';font-variant-ligatures:normal;font-variant-caps:normal;font-variant-numeric:normal;font-variant-east-asian:normal;writing-mode:lr-tb;baseline-shift:baseline;fill:#000000;fill-opacity:1;fill-rule:nonzero;stroke:none;stroke-width:0.509905"
       id="text680"
       x="123.07912"
       y="-194.80118">15</text><text
       transform="scale(1,-1)"
       style="font-style:normal;font-variant:normal;font-weight:normal;font-stretch:normal;font-size:8.53333px;line-height:0%;font-family:'EB Garamond';-inkscape-font-specification:'EB Garamond, Normal';font-variant-ligatures:normal;font-variant-caps:normal;font-variant-numeric:normal;font-variant-east-asian:normal;writing-mode:lr-tb;baseline-shift:baseline;fill:#000000;fill-opacity:1;fill-rule:nonzero;stroke:none;stroke-width:0.509905"
       id="text682"
       x="160.854"
       y="-194.86838">20</text><text
       transform="scale(1,-1)"
       style="font-style:normal;font-variant:normal;font-weight:normal;font-stretch:normal;font-size:8.53333px;line-height:0%;font-family:'EB Garamond';-inkscape-font-specification:'EB Garamond, Normal';font-variant-ligatures:normal;font-variant-caps:normal;font-variant-numeric:normal;font-variant-east-asian:normal;writing-mode:lr-tb;baseline-shift:baseline;fill:#000000;fill-opacity:1;fill-rule:nonzero;stroke:none;stroke-width:0.509905"
       id="text684"
       x="198.09784"
       y="-194.86838">25</text><text
       transform="scale(1,-1)"
       style="font-style:normal;font-variant:normal;font-weight:normal;font-stretch:normal;font-size:8.53333px;line-height:0%;font-family:'EB Garamond';-inkscape-font-specification:'EB Garamond, Normal';font-variant-ligatures:normal;font-variant-caps:normal;font-variant-numeric:normal;font-variant-east-asian:normal;writing-mode:lr-tb;fill:#000000;fill-opacity:1;fill-rule:nonzero;stroke:none;stroke-width:0.509905"
       id="text688"
       y="-210.91122"
       x="228.11121"><tspan
         sodipodi:role="line"
         id="tspan686"
         style="font-style:italic;font-variant:normal;font-weight:normal;font-stretch:normal;font-size:8.53333px;line-height:1.25;font-family:'EB Garamond';-inkscape-font-specification:'EB Garamond, Normal';font-variant-ligatures:normal;font-variant-caps:normal;font-variant-numeric:normal;font-variant-east-asian:normal;stroke-width:0.509905"
         x="228.11121"
         y="-210.91122">k</tspan></text><text
       transform="scale(1,-1)"
       style="font-style:normal;font-variant:normal;font-weight:normal;font-stretch:normal;font-size:8.53333px;line-height:0%;font-family:'EB Garamond';-inkscape-font-specification:'EB Garamond, Normal';font-variant-ligatures:normal;font-variant-caps:normal;font-variant-numeric:normal;font-variant-east-asian:normal;writing-mode:lr-tb;fill:#000000;fill-opacity:1;fill-rule:nonzero;stroke:none;stroke-width:0.509905"
       id="text692"
       y="-303.28027"
       x="220.23462"><tspan
         sodipodi:role="line"
         id="tspan690"
         style="font-style:italic;font-variant:normal;font-weight:normal;font-stretch:normal;font-size:8.53333px;line-height:1.25;font-family:'EB Garamond';-inkscape-font-specification:'EB Garamond, Normal';font-variant-ligatures:normal;font-variant-caps:normal;font-variant-numeric:normal;font-variant-east-asian:normal;stroke-width:0.509905"
         x="220.23462"
         y="-303.28027">A</tspan></text><text
       transform="scale(1,-1)"
       style="font-style:normal;font-variant:normal;font-weight:normal;font-stretch:normal;font-size:8.53333px;line-height:0%;font-family:'EB Garamond';-inkscape-font-specification:'EB Garamond, Normal';font-variant-ligatures:normal;font-variant-caps:normal;font-variant-numeric:normal;font-variant-east-asian:normal;writing-mode:lr-tb;fill:#000000;fill-opacity:1;fill-rule:nonzero;stroke:none;stroke-width:0.509905"
       id="text801"
       y="-303.28027"
       x="16.81469"><tspan
         sodipodi:role="line"
         id="tspan799"
         style="font-style:italic;font-variant:normal;font-weight:normal;font-stretch:normal;font-size:8.53333px;line-height:1.25;font-family:'EB Garamond';-inkscape-font-specification:'EB Garamond, Normal';font-variant-ligatures:normal;font-variant-caps:normal;font-variant-numeric:normal;font-variant-east-asian:normal;stroke-width:0.509905"
         x="16.81469"
         y="-303.28027">A</tspan></text></g></svg>
