<?xml version="1.0" encoding="UTF-8" standalone="no"?>
<!-- Created with Inkscape (http://www.inkscape.org/) -->

<svg
   width="102.04887mm"
   height="68.110352mm"
   viewBox="0 0 102.04887 68.110351"
   version="1.1"
   id="svg5"
   xml:space="preserve"
   inkscape:version="1.2.2 (b0a8486, 2022-12-01)"
   sodipodi:docname="genes0.svg"
   xmlns:inkscape="http://www.inkscape.org/namespaces/inkscape"
   xmlns:sodipodi="http://sodipodi.sourceforge.net/DTD/sodipodi-0.dtd"
   xmlns="http://www.w3.org/2000/svg"
   xmlns:svg="http://www.w3.org/2000/svg"><sodipodi:namedview
     id="namedview7"
     pagecolor="#ffffff"
     bordercolor="#666666"
     borderopacity="1.0"
     inkscape:showpageshadow="2"
     inkscape:pageopacity="0.0"
     inkscape:pagecheckerboard="0"
     inkscape:deskcolor="#d1d1d1"
     inkscape:document-units="mm"
     showgrid="false"
     inkscape:zoom="1.2498732"
     inkscape:cx="144.41465"
     inkscape:cy="170.01725"
     inkscape:window-width="1414"
     inkscape:window-height="855"
     inkscape:window-x="0"
     inkscape:window-y="0"
     inkscape:window-maximized="0"
     inkscape:current-layer="layer1" /><defs
     id="defs2" /><g
     inkscape:label="Layer 1"
     inkscape:groupmode="layer"
     id="layer1"
     transform="translate(-38.136974,-82.642712)"><rect
       style="fill:#f9f9f9;stroke:#333333;stroke-width:0.4;stroke-linecap:round;-inkscape-stroke:none;stop-color:#000000"
       id="rect10643"
       width="51.589371"
       height="67.504105"
       x="43.946499"
       y="83.048958" /><rect
       style="fill:#f9f9f9;stroke:#333333;stroke-width:0.4;stroke-linecap:round;-inkscape-stroke:none;stop-color:#000000"
       id="rect10645"
       width="35.924789"
       height="67.71035"
       x="104.06106"
       y="82.842712" /><rect
       style="fill:#ffd5e5;stroke:#333333;stroke-width:0.4;stroke-linecap:round;-inkscape-stroke:none;stop-color:#000000"
       id="rect10647"
       width="47.473972"
       height="20.136021"
       x="45.534"
       y="124.78453" /><rect
       style="fill:#ffd5e5;stroke:#333333;stroke-width:0.4;stroke-linecap:round;-inkscape-stroke:none;stop-color:#000000"
       id="rect10649"
       width="31.30637"
       height="20.336018"
       x="106.68077"
       y="124.58453" /><circle
       style="fill:#fff6d5;stroke:#333333;stroke-width:0.4;stroke-linecap:round;-inkscape-stroke:none;stop-color:#000000"
       id="path10651"
       cx="69.74118"
       cy="100.04601"
       r="12.3" /><circle
       style="fill:#fff6d5;stroke:#333333;stroke-width:0.4;stroke-linecap:round;-inkscape-stroke:none;stop-color:#000000"
       id="circle10653"
       cx="121.59952"
       cy="100.04601"
       r="12.3" /><circle
       style="fill:#fff6d5;stroke:#333333;stroke-width:0.4;stroke-linecap:round;-inkscape-stroke:none;stop-color:#000000"
       id="circle10655"
       cx="128.81746"
       cy="135.98219"
       r="5.4655118" /><circle
       style="fill:#fff6d5;stroke:#333333;stroke-width:0.4;stroke-linecap:round;-inkscape-stroke:none;stop-color:#000000"
       id="circle10657"
       cx="115.05913"
       cy="135.98219"
       r="5.4655118" /><circle
       style="fill:#fff6d5;stroke:#333333;stroke-width:0.4;stroke-linecap:round;-inkscape-stroke:none;stop-color:#000000"
       id="circle10659"
       cx="87.013306"
       cy="135.98219"
       r="5.4655118" /><circle
       style="fill:#fff6d5;stroke:#333333;stroke-width:0.4;stroke-linecap:round;-inkscape-stroke:none;stop-color:#000000"
       id="circle10661"
       cx="74.842476"
       cy="135.98219"
       r="5.4655118" /><circle
       style="fill:#fff6d5;stroke:#333333;stroke-width:0.4;stroke-linecap:round;-inkscape-stroke:none;stop-color:#000000"
       id="circle10663"
       cx="63.200817"
       cy="135.98219"
       r="5.4655118" /><circle
       style="fill:#fff6d5;stroke:#333333;stroke-width:0.4;stroke-linecap:round;-inkscape-stroke:none;stop-color:#000000"
       id="circle10665"
       cx="52.088314"
       cy="135.98219"
       r="5.4655118" /><text
       xml:space="preserve"
       style="font-size:3.52777778px;line-height:0.65;font-family:'EB Garamond';-inkscape-font-specification:'EB Garamond';text-align:end;letter-spacing:0px;word-spacing:0px;text-anchor:end;stroke-width:0.264583;font-weight:normal;font-style:normal;font-stretch:normal;font-variant:normal"
       x="41.569138"
       y="149.79192"
       id="text27837"><tspan
         sodipodi:role="line"
         id="tspan27835"
         style="stroke-width:0.264583;-inkscape-font-specification:'EB Garamond';font-family:'EB Garamond';font-weight:normal;font-style:normal;font-stretch:normal;font-variant:normal;font-size:3.52777778px"
         x="41.569138"
         y="149.79192">(<tspan
   style="font-style:normal;-inkscape-font-specification:'EB Garamond';font-family:'EB Garamond';font-weight:normal;font-stretch:normal;font-variant:normal;font-size:3.52777778px"
   id="tspan14240">a</tspan>)</tspan></text><rect
       style="fill:#00ccff;stroke:#333333;stroke-width:0.25;stroke-linecap:round;stroke-dasharray:none;stop-color:#000000"
       id="rect2495"
       width="1.3359047"
       height="7.337924"
       x="66.288605"
       y="96.906219"
       rx="1.6274431"
       ry="1.6866604" /><rect
       style="fill:#ff0000;stroke:#333333;stroke-width:0.25;stroke-linecap:round;stroke-dasharray:none;stop-color:#000000"
       id="rect2497"
       width="1.3359047"
       height="7.337924"
       x="63.647068"
       y="96.906219"
       rx="1.6274431"
       ry="1.6866604" /><text
       xml:space="preserve"
       style="font-size:3.52777778px;line-height:0.65;font-family:'EB Garamond';-inkscape-font-specification:'EB Garamond';text-align:end;letter-spacing:0px;word-spacing:0px;text-anchor:end;stroke-width:0.264583;font-weight:normal;font-style:normal;font-stretch:normal;font-variant:normal"
       x="129.57426"
       y="148.96483"
       id="text4248"><tspan
         sodipodi:role="line"
         id="tspan4246"
         style="stroke-width:0.264583;-inkscape-font-specification:'EB Garamond';font-family:'EB Garamond';font-weight:normal;font-style:normal;font-stretch:normal;font-variant:normal;font-size:3.52777778px"
         x="129.57426"
         y="148.96483">Gametes</tspan></text><path
       id="rect11031"
       style="fill:#00ccff;stroke:#333333;stroke-width:0.25;stroke-linecap:round;stroke-dasharray:none;stop-color:#000000"
       d="m 74.396362,97.092885 c -0.049,6.55e-4 -0.0945,0.01137 -0.1354,0.03307 -0.32679,0.173611 -0.23685,0.977806 0.20154,1.802991 l 0.87488,1.646414 -0.87488,1.64641 c -0.43839,0.82519 -0.52833,1.62938 -0.20154,1.80299 0.32679,0.17362 0.94291,-0.35148 1.38131,-1.17667 l 0.92966,-1.75028 0.2474,-0.55247 -0.2474,-0.49243 -0.92966,-1.750799 c -0.3836,-0.722037 -0.90313,-1.213816 -1.24591,-1.209229 z"
       sodipodi:nodetypes="sscccscccccs" /><path
       id="path11402"
       style="fill:#ff0000;fill-opacity:1;stroke:#333333;stroke-width:0.25;stroke-linecap:round;stroke-dasharray:none;stop-color:#000000"
       d="m 71.750542,97.092885 c -0.049,6.55e-4 -0.0945,0.01137 -0.1354,0.03307 -0.32679,0.173611 -0.23685,0.977806 0.20154,1.802991 l 0.87488,1.646414 -0.87488,1.64641 c -0.43839,0.82519 -0.52833,1.62938 -0.20154,1.80299 0.32679,0.17362 0.94291,-0.35148 1.38131,-1.17667 l 0.92966,-1.75028 0.2474,-0.55247 -0.2474,-0.49243 -0.92966,-1.750799 c -0.3836,-0.722037 -0.90313,-1.213816 -1.24591,-1.209229 z"
       sodipodi:nodetypes="sscccscccccs" /><rect
       style="fill:#ff0000;fill-opacity:1;stroke:#333333;stroke-width:0.25;stroke-linecap:round;stroke-dasharray:none;stop-color:#000000"
       id="rect11404"
       width="1.3359047"
       height="7.337924"
       x="118.53951"
       y="96.377052"
       rx="1.6274431"
       ry="1.6866604" /><rect
       style="fill:#ff0000;stroke:#333333;stroke-width:0.25;stroke-linecap:round;stroke-dasharray:none;stop-color:#000000"
       id="rect11406"
       width="1.3359047"
       height="7.337924"
       x="115.89796"
       y="96.377052"
       rx="1.6274431"
       ry="1.6866604" /><path
       id="path11408"
       style="fill:#00ccff;stroke:#333333;stroke-width:0.25;stroke-linecap:round;stroke-dasharray:none;stop-color:#000000"
       d="m 126.64727,96.563715 c -0.049,6.55e-4 -0.0945,0.01137 -0.1354,0.03307 -0.32679,0.173611 -0.23685,0.977806 0.20154,1.802991 l 0.87488,1.646414 -0.87488,1.64641 c -0.43839,0.82519 -0.52833,1.62938 -0.20154,1.80299 0.32679,0.17362 0.94291,-0.35148 1.38131,-1.17667 l 0.92966,-1.75028 0.2474,-0.55247 -0.2474,-0.49243 -0.92966,-1.750799 c -0.3836,-0.722037 -0.90313,-1.213816 -1.24591,-1.209229 z"
       sodipodi:nodetypes="sscccscccccs" /><path
       id="path11410"
       style="fill:#ff0000;fill-opacity:1;stroke:#333333;stroke-width:0.25;stroke-linecap:round;stroke-dasharray:none;stop-color:#000000"
       d="m 124.00145,96.563715 c -0.049,6.55e-4 -0.0945,0.01137 -0.1354,0.03307 -0.32679,0.173611 -0.23685,0.977806 0.20154,1.802991 l 0.87488,1.646414 -0.87488,1.64641 c -0.43839,0.82519 -0.52833,1.62938 -0.20154,1.80299 0.32679,0.17362 0.94291,-0.35148 1.38131,-1.17667 l 0.92966,-1.75028 0.2474,-0.55247 -0.2474,-0.49243 -0.92966,-1.750799 c -0.3836,-0.722037 -0.90313,-1.213816 -1.24591,-1.209229 z"
       sodipodi:nodetypes="sscccscccccs" /><g
       id="g14218"
       transform="translate(0.14015474)"><rect
         style="fill:#ff0000;stroke:#333333;stroke-width:0.25;stroke-linecap:round;stroke-dasharray:none;stop-color:#000000"
         id="rect13075"
         width="1.3359047"
         height="7.337924"
         x="61.084152"
         y="132.31323"
         rx="1.6274431"
         ry="1.6866604" /><path
         id="path13077"
         style="fill:#00cafd;fill-opacity:1;stroke:#333333;stroke-width:0.25;stroke-linecap:round;stroke-dasharray:none;stop-color:#000000"
         d="m 63.659195,132.5007 c -0.049,6.5e-4 -0.0945,0.0114 -0.1354,0.0331 -0.32679,0.17361 -0.23685,0.9778 0.20154,1.80299 l 0.87488,1.64641 -0.87488,1.64641 c -0.43839,0.82519 -0.52833,1.62938 -0.20154,1.80299 0.32679,0.17362 0.94291,-0.35148 1.38131,-1.17667 l 0.92966,-1.75028 0.2474,-0.55247 -0.2474,-0.49243 -0.92966,-1.7508 c -0.3836,-0.72203 -0.90313,-1.21381 -1.24591,-1.20923 z"
         sodipodi:nodetypes="sscccscccccs" /></g><g
       id="g14214"
       transform="translate(-0.38901296)"><rect
         style="fill:#ff0000;stroke:#333333;stroke-width:0.25;stroke-linecap:round;stroke-dasharray:none;stop-color:#000000"
         id="rect13071"
         width="1.3359047"
         height="7.337924"
         x="49.971649"
         y="132.31323"
         rx="1.6274431"
         ry="1.6866604" /><path
         id="path13073"
         style="fill:#ff0000;fill-opacity:1;stroke:#333333;stroke-width:0.25;stroke-linecap:round;stroke-dasharray:none;stop-color:#000000"
         d="m 52.546694,132.5007 c -0.049,6.5e-4 -0.0945,0.0114 -0.1354,0.0331 -0.32679,0.17361 -0.23685,0.9778 0.20154,1.80299 l 0.87488,1.64641 -0.87488,1.64641 c -0.43839,0.82519 -0.52833,1.62938 -0.20154,1.80299 0.32679,0.17362 0.94291,-0.35148 1.38131,-1.17667 l 0.92966,-1.75028 0.2474,-0.55247 -0.2474,-0.49243 -0.92966,-1.7508 c -0.3836,-0.72203 -0.90313,-1.21381 -1.24591,-1.20923 z"
         sodipodi:nodetypes="sscccscccccs" /></g><g
       id="g14222"
       transform="translate(0.14014822)"><rect
         style="fill:#00cafd;fill-opacity:1;stroke:#333333;stroke-width:0.25;stroke-linecap:round;stroke-dasharray:none;stop-color:#000000"
         id="rect13079"
         width="1.3359047"
         height="7.337924"
         x="72.725815"
         y="132.31323"
         rx="1.6274431"
         ry="1.6866604" /><path
         id="path13081"
         style="fill:#ff0000;fill-opacity:1;stroke:#333333;stroke-width:0.25;stroke-linecap:round;stroke-dasharray:none;stop-color:#000000"
         d="m 75.300863,132.5007 c -0.049,6.5e-4 -0.0945,0.0114 -0.1354,0.0331 -0.32679,0.17361 -0.23685,0.9778 0.20154,1.80299 l 0.87488,1.64641 -0.87488,1.64641 c -0.43839,0.82519 -0.52833,1.62938 -0.20154,1.80299 0.32679,0.17362 0.94291,-0.35148 1.38131,-1.17667 l 0.92966,-1.75028 0.2474,-0.55247 -0.2474,-0.49243 -0.92966,-1.7508 c -0.3836,-0.72203 -0.90313,-1.21381 -1.24591,-1.20923 z"
         sodipodi:nodetypes="sscccscccccs" /></g><g
       id="g14226"
       transform="translate(0.66931273)"><rect
         style="fill:#00cafd;fill-opacity:1;stroke:#333333;stroke-width:0.25;stroke-linecap:round;stroke-dasharray:none;stop-color:#000000"
         id="rect13083"
         width="1.3359047"
         height="7.337924"
         x="84.367477"
         y="132.31323"
         rx="1.6274431"
         ry="1.6866604" /><path
         id="path13085"
         style="fill:#00cafd;fill-opacity:1;stroke:#333333;stroke-width:0.25;stroke-linecap:round;stroke-dasharray:none;stop-color:#000000"
         d="m 86.942531,132.5007 c -0.049,6.5e-4 -0.0945,0.0114 -0.1354,0.0331 -0.32679,0.17361 -0.23685,0.9778 0.20154,1.80299 l 0.87488,1.64641 -0.87488,1.64641 c -0.43839,0.82519 -0.52833,1.62938 -0.20154,1.80299 0.32679,0.17362 0.94291,-0.35148 1.38131,-1.17667 l 0.92966,-1.75028 0.2474,-0.55247 -0.2474,-0.49243 -0.92966,-1.7508 c -0.3836,-0.72203 -0.90313,-1.21381 -1.24591,-1.20923 z"
         sodipodi:nodetypes="sscccscccccs" /></g><g
       id="g14230"
       transform="translate(7.0193094)"><rect
         style="fill:#ff0000;stroke:#333333;stroke-width:0.25;stroke-linecap:round;stroke-dasharray:none;stop-color:#000000"
         id="rect13087"
         width="1.3359047"
         height="7.337924"
         x="106.06329"
         y="132.31323"
         rx="1.6274431"
         ry="1.6866604" /><path
         id="path13089"
         style="fill:#ff0000;fill-opacity:1;stroke:#333333;stroke-width:0.25;stroke-linecap:round;stroke-dasharray:none;stop-color:#000000"
         d="m 108.63837,132.5007 c -0.049,6.5e-4 -0.0945,0.0114 -0.1354,0.0331 -0.32679,0.17361 -0.23685,0.9778 0.20154,1.80299 l 0.87488,1.64641 -0.87488,1.64641 c -0.43839,0.82519 -0.52833,1.62938 -0.20154,1.80299 0.32679,0.17362 0.94291,-0.35148 1.38131,-1.17667 l 0.92966,-1.75028 0.2474,-0.55247 -0.2474,-0.49243 -0.92966,-1.7508 c -0.3836,-0.72203 -0.90313,-1.21381 -1.24591,-1.20923 z"
         sodipodi:nodetypes="sscccscccccs" /></g><g
       id="g14234"
       transform="translate(5.9609729)"><rect
         style="fill:#ff0000;fill-opacity:1;stroke:#333333;stroke-width:0.25;stroke-linecap:round;stroke-dasharray:none;stop-color:#000000"
         id="rect13091"
         width="1.3359047"
         height="7.337924"
         x="120.87996"
         y="132.31323"
         rx="1.6274431"
         ry="1.6866604" /><path
         id="path13093"
         style="fill:#00cafd;fill-opacity:1;stroke:#333333;stroke-width:0.25;stroke-linecap:round;stroke-dasharray:none;stop-color:#000000"
         d="m 123.45504,132.5007 c -0.049,6.5e-4 -0.0945,0.0114 -0.1354,0.0331 -0.32679,0.17361 -0.23685,0.9778 0.20154,1.80299 l 0.87488,1.64641 -0.87488,1.64641 c -0.43839,0.82519 -0.52833,1.62938 -0.20154,1.80299 0.32679,0.17362 0.94291,-0.35148 1.38131,-1.17667 l 0.92966,-1.75028 0.2474,-0.55247 -0.2474,-0.49243 -0.92966,-1.7508 c -0.3836,-0.72203 -0.90313,-1.21381 -1.24591,-1.20923 z"
         sodipodi:nodetypes="sscccscccccs" /></g><path
       style="fill:none;stroke:#d40000;stroke-width:0.5;stroke-linecap:round;stroke-linejoin:round;stroke-dasharray:none;stroke-opacity:1"
       d="m 69.741179,112.34601 17.272126,18.17067"
       id="path14130" /><path
       style="fill:none;stroke:#d40000;stroke-width:0.5;stroke-linecap:round;stroke-linejoin:round;stroke-dasharray:none;stroke-opacity:1"
       d="m 69.741179,112.34601 5.101297,18.17067"
       id="path14132"
       sodipodi:nodetypes="cc" /><path
       style="fill:none;stroke:#d40000;stroke-width:0.5;stroke-linecap:round;stroke-linejoin:round;stroke-dasharray:none;stroke-opacity:1"
       d="m 69.741179,112.34601 -6.540362,18.17067"
       id="path14134"
       sodipodi:nodetypes="cc" /><path
       style="fill:none;stroke:#d40000;stroke-width:0.5;stroke-linecap:round;stroke-linejoin:round;stroke-dasharray:none;stroke-opacity:1"
       d="M 69.741179,112.34601 52.088314,130.51668"
       id="path14136"
       sodipodi:nodetypes="cc" /><path
       style="font-variation-settings:normal;opacity:1;vector-effect:none;fill:none;fill-opacity:1;stroke:#d40000;stroke-width:0.5;stroke-linecap:round;stroke-linejoin:round;stroke-miterlimit:4;stroke-dasharray:none;stroke-dashoffset:0;stroke-opacity:1;-inkscape-stroke:none;stop-color:#000000;stop-opacity:1"
       d="m 121.59953,112.34601 7.21794,18.17067"
       id="path14138" /><path
       style="font-variation-settings:normal;opacity:1;vector-effect:none;fill:none;fill-opacity:1;stroke:#d40000;stroke-width:0.5;stroke-linecap:round;stroke-linejoin:round;stroke-miterlimit:4;stroke-dasharray:none;stroke-dashoffset:0;stroke-opacity:1;-inkscape-stroke:none;stop-color:#000000;stop-opacity:1"
       d="m 121.59953,112.34601 -6.54039,18.17067"
       id="path14159"
       sodipodi:nodetypes="cc" /><text
       xml:space="preserve"
       style="font-size:3.52777778px;line-height:0.65;font-family:'EB Garamond';-inkscape-font-specification:'EB Garamond';text-align:end;letter-spacing:0px;word-spacing:0px;text-anchor:end;stroke-width:0.264583;font-weight:normal;font-style:normal;font-stretch:normal;font-variant:normal"
       x="76.242523"
       y="148.96483"
       id="text14238"><tspan
         sodipodi:role="line"
         id="tspan14236"
         style="stroke-width:0.264583;-inkscape-font-specification:'EB Garamond';font-family:'EB Garamond';font-weight:normal;font-style:normal;font-stretch:normal;font-variant:normal;font-size:3.52777778px"
         x="76.242523"
         y="148.96483">Gametes</tspan></text><text
       xml:space="preserve"
       style="font-size:3.52777778px;line-height:0.65;font-family:'EB Garamond';-inkscape-font-specification:'EB Garamond';text-align:end;letter-spacing:0px;word-spacing:0px;text-anchor:end;stroke-width:0.264583;font-weight:normal;font-style:normal;font-stretch:normal;font-variant:normal"
       x="101.33904"
       y="149.79509"
       id="text14246"><tspan
         sodipodi:role="line"
         id="tspan14244"
         style="stroke-width:0.264583;-inkscape-font-specification:'EB Garamond';font-family:'EB Garamond';font-weight:normal;font-style:normal;font-stretch:normal;font-variant:normal;font-size:3.52777778px"
         x="101.33904"
         y="149.79509">(<tspan
   style="font-style:normal;-inkscape-font-specification:'EB Garamond';font-family:'EB Garamond';font-weight:normal;font-stretch:normal;font-variant:normal;font-size:3.52777778px"
   id="tspan14248">b</tspan>)</tspan></text></g></svg>
