<?xml version="1.0" encoding="UTF-8" standalone="no"?>
<!-- Created with Inkscape (http://www.inkscape.org/) -->

<svg
   id="svg2"
   version="1.1"
   inkscape:version="1.2.2 (b0a8486, 2022-12-01)"
   xml:space="preserve"
   width="163.99571"
   height="366.72623"
   viewBox="0 0 163.99571 366.72622"
   sodipodi:docname="labyrinth.svg"
   xmlns:inkscape="http://www.inkscape.org/namespaces/inkscape"
   xmlns:sodipodi="http://sodipodi.sourceforge.net/DTD/sodipodi-0.dtd"
   xmlns="http://www.w3.org/2000/svg"
   xmlns:svg="http://www.w3.org/2000/svg"
   xmlns:rdf="http://www.w3.org/1999/02/22-rdf-syntax-ns#"
   xmlns:cc="http://creativecommons.org/ns#"
   xmlns:dc="http://purl.org/dc/elements/1.1/"><metadata
     id="metadata8"><rdf:RDF><cc:Work
         rdf:about=""><dc:format>image/svg+xml</dc:format><dc:type
           rdf:resource="http://purl.org/dc/dcmitype/StillImage" /><dc:title /></cc:Work></rdf:RDF></metadata><defs
     id="defs6"><marker
       inkscape:stockid="Arrow2Mend"
       orient="auto"
       refY="0"
       refX="0"
       id="marker7780"
       style="overflow:visible"
       inkscape:isstock="true"><path
         id="path7782"
         style="fill:#ff6347;fill-opacity:1;fill-rule:evenodd;stroke:#ff6347;stroke-width:0.625;stroke-linejoin:round;stroke-opacity:1"
         d="M 8.7185878,4.0337352 -2.2072895,0.01601326 8.7185884,-4.0017078 c -1.7454984,2.3720609 -1.7354408,5.6174519 -6e-7,8.035443 z"
         transform="scale(-0.6,-0.6)"
         inkscape:connector-curvature="0" /></marker><marker
       inkscape:stockid="TriangleOutL"
       orient="auto"
       refY="0"
       refX="0"
       id="TriangleOutL"
       style="overflow:visible"
       inkscape:isstock="true"><path
         id="path7654"
         d="m 5.77,0 -8.65,5 0,-10 8.65,5 z"
         style="fill:#ff6347;fill-opacity:1;fill-rule:evenodd;stroke:#ff6347;stroke-width:1pt;stroke-opacity:1"
         transform="scale(0.8,0.8)"
         inkscape:connector-curvature="0" /></marker><marker
       inkscape:stockid="TriangleOutM"
       orient="auto"
       refY="0"
       refX="0"
       id="TriangleOutM"
       style="overflow:visible"
       inkscape:isstock="true"><path
         id="path7657"
         d="m 5.77,0 -8.65,5 0,-10 8.65,5 z"
         style="fill:#ff6347;fill-opacity:1;fill-rule:evenodd;stroke:#ff6347;stroke-width:1pt;stroke-opacity:1"
         transform="scale(0.4,0.4)"
         inkscape:connector-curvature="0" /></marker><marker
       inkscape:stockid="Arrow2Mend"
       orient="auto"
       refY="0"
       refX="0"
       id="marker7772"
       style="overflow:visible"
       inkscape:isstock="true"><path
         id="path7774"
         style="fill:#ff6347;fill-opacity:1;fill-rule:evenodd;stroke:#ff6347;stroke-width:0.625;stroke-linejoin:round;stroke-opacity:1"
         d="M 8.7185878,4.0337352 -2.2072895,0.01601326 8.7185884,-4.0017078 c -1.7454984,2.3720609 -1.7354408,5.6174519 -6e-7,8.035443 z"
         transform="scale(-0.6,-0.6)"
         inkscape:connector-curvature="0" /></marker><marker
       inkscape:stockid="Arrow2Sstart"
       orient="auto"
       refY="0"
       refX="0"
       id="Arrow2Sstart"
       style="overflow:visible"
       inkscape:isstock="true"><path
         id="path7542"
         style="fill:#ff6347;fill-opacity:1;fill-rule:evenodd;stroke:#ff6347;stroke-width:0.625;stroke-linejoin:round;stroke-opacity:1"
         d="M 8.7185878,4.0337352 -2.2072895,0.01601326 8.7185884,-4.0017078 c -1.7454984,2.3720609 -1.7354408,5.6174519 -6e-7,8.035443 z"
         transform="matrix(0.3,0,0,0.3,-0.69,0)"
         inkscape:connector-curvature="0" /></marker><marker
       inkscape:stockid="Arrow2Mend"
       orient="auto"
       refY="0"
       refX="0"
       id="Arrow2Mend"
       style="overflow:visible"
       inkscape:isstock="true"><path
         id="path7539"
         style="fill:#ff6347;fill-opacity:1;fill-rule:evenodd;stroke:#ff6347;stroke-width:0.625;stroke-linejoin:round;stroke-opacity:1"
         d="M 8.7185878,4.0337352 -2.2072895,0.01601326 8.7185884,-4.0017078 c -1.7454984,2.3720609 -1.7354408,5.6174519 -6e-7,8.035443 z"
         transform="scale(-0.6,-0.6)"
         inkscape:connector-curvature="0" /></marker><marker
       inkscape:stockid="Arrow1Mend"
       orient="auto"
       refY="0"
       refX="0"
       id="marker8269"
       style="overflow:visible"
       inkscape:isstock="true"><path
         id="path8271"
         d="M 0,0 5,-5 -12.5,0 5,5 0,0 Z"
         style="fill:#ff6347;fill-opacity:1;fill-rule:evenodd;stroke:#ff6347;stroke-width:1pt;stroke-opacity:1"
         transform="matrix(-0.4,0,0,-0.4,-4,0)"
         inkscape:connector-curvature="0" /></marker><marker
       inkscape:stockid="Arrow1Mend"
       orient="auto"
       refY="0"
       refX="0"
       id="marker8175"
       style="overflow:visible"
       inkscape:isstock="true"><path
         id="path8177"
         d="M 0,0 5,-5 -12.5,0 5,5 0,0 Z"
         style="fill:#ff6347;fill-opacity:1;fill-rule:evenodd;stroke:#ff6347;stroke-width:1pt;stroke-opacity:1"
         transform="matrix(-0.4,0,0,-0.4,-4,0)"
         inkscape:connector-curvature="0" /></marker><marker
       inkscape:isstock="true"
       style="overflow:visible"
       id="marker8081"
       refX="0"
       refY="0"
       orient="auto"
       inkscape:stockid="Arrow1Mend"><path
         transform="matrix(-0.4,0,0,-0.4,-4,0)"
         style="fill:#ff6347;fill-opacity:1;fill-rule:evenodd;stroke:#ff6347;stroke-width:1pt;stroke-opacity:1"
         d="M 0,0 5,-5 -12.5,0 5,5 0,0 Z"
         id="path8083"
         inkscape:connector-curvature="0" /></marker><marker
       inkscape:isstock="true"
       style="overflow:visible"
       id="marker8017"
       refX="0"
       refY="0"
       orient="auto"
       inkscape:stockid="Arrow1Mend"><path
         transform="matrix(-0.4,0,0,-0.4,-4,0)"
         style="fill:#ff6347;fill-opacity:1;fill-rule:evenodd;stroke:#ff6347;stroke-width:1pt;stroke-opacity:1"
         d="M 0,0 5,-5 -12.5,0 5,5 0,0 Z"
         id="path8019"
         inkscape:connector-curvature="0" /></marker><marker
       inkscape:isstock="true"
       style="overflow:visible"
       id="marker7911"
       refX="0"
       refY="0"
       orient="auto"
       inkscape:stockid="Arrow1Mend"><path
         transform="matrix(-0.4,0,0,-0.4,-4,0)"
         style="fill:#ff6347;fill-opacity:1;fill-rule:evenodd;stroke:#ff6347;stroke-width:1pt;stroke-opacity:1"
         d="M 0,0 5,-5 -12.5,0 5,5 0,0 Z"
         id="path7913"
         inkscape:connector-curvature="0" /></marker><marker
       inkscape:stockid="Arrow1Lend"
       orient="auto"
       refY="0"
       refX="0"
       id="Arrow1Lend"
       style="overflow:visible"
       inkscape:isstock="true"><path
         id="path7128"
         d="M 0,0 5,-5 -12.5,0 5,5 0,0 Z"
         style="fill:#ff6347;fill-opacity:1;fill-rule:evenodd;stroke:#ff6347;stroke-width:1pt;stroke-opacity:1"
         transform="matrix(-0.8,0,0,-0.8,-10,0)"
         inkscape:connector-curvature="0" /></marker></defs><sodipodi:namedview
     pagecolor="#ffffff"
     bordercolor="#666666"
     borderopacity="1"
     objecttolerance="10"
     gridtolerance="10"
     guidetolerance="10"
     inkscape:pageopacity="0"
     inkscape:pageshadow="2"
     inkscape:window-width="1440"
     inkscape:window-height="878"
     id="namedview4"
     showgrid="false"
     inkscape:zoom="3.7596347"
     inkscape:cx="47.478017"
     inkscape:cy="346.31024"
     inkscape:window-x="0"
     inkscape:window-y="0"
     inkscape:window-maximized="1"
     inkscape:current-layer="g10"
     fit-margin-top="0"
     fit-margin-left="0"
     fit-margin-right="0"
     fit-margin-bottom="0"
     inkscape:showpageshadow="2"
     inkscape:pagecheckerboard="0"
     inkscape:deskcolor="#d1d1d1"><inkscape:grid
       type="xygrid"
       id="grid6104"
       originx="-290.22475"
       originy="-235.58907" /></sodipodi:namedview><g
     id="g10"
     inkscape:groupmode="layer"
     inkscape:label="tarasov-twibop"
     transform="matrix(1.25,0,0,-1.25,-290.22475,602.31528)"><path
   style="fill:#000000"
   d="m 314.33758,425.48064 c -1.26579,0.17886 -4.16684,1.17609 -5.48591,1.88576 -2.68477,1.44443 -2.75669,1.93492 -0.36157,2.46558 0.86119,0.1908 1.7645,0.45133 2.00735,0.57895 0.30486,0.1602 0.48867,0.10928 0.59371,-0.16447 0.16612,-0.43289 0.97177,-0.55234 0.97177,-0.14408 0,0.13884 -0.22042,0.40979 -0.48981,0.60211 -0.9555,0.68213 -0.97721,2.35672 -0.0306,2.35672 0.27103,0 0.81763,0.30106 1.21466,0.66902 0.39704,0.36795 0.87511,0.66901 1.06239,0.66901 0.18728,0 0.59361,0.40953 0.90296,0.91007 0.7207,1.16612 1.20963,1.34009 2.10496,0.74895 1.14769,-0.75777 1.74958,-1.10681 2.37984,-1.38011 0.32346,-0.14026 0.7889,-0.56145 1.0343,-0.93598 0.24539,-0.37452 0.61296,-0.68096 0.81681,-0.68096 0.20384,0 0.37063,-0.12656 0.37063,-0.28126 0,-0.15469 0.4133,-0.45395 0.91846,-0.66501 0.68583,-0.28656 0.94,-0.57116 1.00352,-1.12367 0.0647,-0.56272 0.24527,-0.75785 0.75407,-0.81483 2.52201,-0.28242 2.53967,-0.94186 0.0636,-2.37538 -2.95596,-1.71137 -7.14477,-2.70004 -9.83122,-2.32042 z m 5.03109,0.89334 c 4.1799,1.09482 5.48893,2.22356 1.96256,1.69226 -3.62565,-0.54625 -9.19579,-0.38763 -12.11482,0.34499 -1.03121,0.25882 -0.73338,-0.37209 0.46403,-0.98297 1.51175,-0.77123 4.6509,-1.55994 6.27927,-1.57765 0.74499,-0.008 2.27903,0.22741 3.40896,0.52337 z m -3.9595,2.13983 c 0.0916,0.14823 -0.0269,0.34374 -0.26336,0.43447 -0.51237,0.19662 -0.79792,-0.02 -0.55163,-0.41855 0.22221,-0.35955 0.59807,-0.36689 0.81499,-0.0159 z m 4.28051,-0.002 c 0.091,0.14719 0.0379,0.26761 -0.11801,0.26761 -0.15586,0 -0.28339,-0.12042 -0.28339,-0.26761 0,-0.14718 0.0531,-0.2676 0.118,-0.2676 0.0649,0 0.19244,0.12042 0.2834,0.2676 z m -6.99476,0.40141 c -0.0847,0.22078 -0.24683,0.40141 -0.36024,0.40141 -0.11342,0 -0.35613,-0.18063 -0.53935,-0.40141 -0.28155,-0.33924 -0.22576,-0.40141 0.36024,-0.40141 0.50639,0 0.65184,0.10825 0.53935,0.40141 z m -1.97001,0.26761 c -0.18323,0.22077 -0.67966,0.4014 -1.10319,0.4014 -0.50608,0 -0.77005,-0.13759 -0.77005,-0.4014 0,-0.2919 0.30098,-0.40141 1.10319,-0.40141 0.95027,0 1.05701,0.0556 0.77005,0.40141 z m 12.8116,-0.23416 c 0.95319,0.19064 1.08836,0.52798 0.30105,0.75133 -0.29436,0.0835 -0.76336,0.21614 -1.04222,0.29473 -0.49716,0.14011 -1.36622,-0.47362 -1.36622,-0.96482 0,-0.28714 0.9037,-0.32198 2.10739,-0.0812 z m -9.39951,0.43486 c -0.0613,0.18398 -0.33841,0.3785 -0.61589,0.43227 -0.43649,0.0846 -0.45615,0.0395 -0.14577,-0.3345 0.42448,-0.51147 0.92061,-0.57515 0.76166,-0.0978 z m 3.01043,-0.0997 c 0,0.33732 -0.78555,0.94205 -0.97614,0.75146 -0.27404,-0.27405 0.13494,-0.9863 0.56634,-0.9863 0.22539,0 0.4098,0.10568 0.4098,0.23484 z m 2.14085,0.13381 c 0,0.4939 -0.70943,1.05868 -1.0587,0.84282 -0.44023,-0.27207 -0.32609,-0.8924 0.18898,-1.027 0.80117,-0.20937 0.86972,-0.19485 0.86972,0.18418 z m 1.87323,0.43417 c 0,0.29734 -0.1784,0.53521 -0.40141,0.53521 -0.4074,0 -0.54892,-0.56609 -0.223,-0.89202 0.33927,-0.33926 0.62441,-0.17632 0.62441,0.35681 z m -5.671,0.82289 c -0.0527,0.15822 -0.21029,0.28767 -0.35012,0.28767 -0.13982,0 -0.29737,-0.12945 -0.35011,-0.28767 -0.0527,-0.15823 0.10481,-0.28768 0.35011,-0.28768 0.24531,0 0.40286,0.12945 0.35012,0.28768 z m 2.19213,0.38133 c 0,0.22078 -0.18063,0.40141 -0.4014,0.40141 -0.41789,0 -0.53093,-0.3165 -0.22301,-0.62441 0.30792,-0.30792 0.62441,-0.19488 0.62441,0.223 z m 2.40845,-0.1338 c 0,0.14718 -0.12042,0.26761 -0.2676,0.26761 -0.14719,0 -0.26761,-0.12043 -0.26761,-0.26761 0,-0.14718 0.12042,-0.2676 0.26761,-0.2676 0.14718,0 0.2676,0.12042 0.2676,0.2676 z m 2.65628,0.42523 c -0.17235,0.20767 -0.41904,0.37759 -0.5482,0.37759 -0.3621,0 -0.2778,-0.74281 0.0997,-0.87821 0.53594,-0.19224 0.78908,0.0903 0.44854,0.50062 z m -8.8112,-0.0525 c 0,0.52005 -0.70472,0.73688 -1.04853,0.32261 -0.34146,-0.41143 -0.11363,-0.69539 0.55792,-0.69539 0.26984,0 0.49061,0.16775 0.49061,0.37278 z m 5.61561,0.49694 c -0.002,0.18398 -0.0958,0.47868 -0.20777,0.65488 -0.29212,0.45953 -0.97372,-0.0357 -0.77214,-0.56097 0.19352,-0.5043 0.98587,-0.58024 0.97991,-0.0939 z m 1.60973,0.3345 c 0,0.22078 -0.18063,0.40141 -0.40141,0.40141 -0.41788,0 -0.53092,-0.31649 -0.223,-0.62441 0.30792,-0.30792 0.62441,-0.19488 0.62441,0.223 z m -8.83097,0.26761 c 0,0.22077 -0.18064,0.40141 -0.40141,0.40141 -0.22077,0 -0.40141,-0.18064 -0.40141,-0.40141 0,-0.22077 0.18064,-0.40141 0.40141,-0.40141 0.22077,0 0.40141,0.18064 0.40141,0.40141 z m 3.81723,-0.24144 c 0.25539,0.25538 -0.0936,0.91045 -0.485,0.91045 -0.44829,0 -0.74075,-0.44947 -0.52238,-0.80281 0.18278,-0.29574 0.75784,-0.35719 1.00738,-0.10764 z m -1.67639,1.32765 c 0,0.39338 -0.57131,0.52793 -0.8897,0.20954 -0.242,-0.24201 0.35774,-0.92392 0.65242,-0.7418 0.1305,0.0807 0.23728,0.32018 0.23728,0.53226 z m 3.67954,0.007 c -0.25502,0.25502 -0.76629,-0.15805 -0.57624,-0.46555 0.11296,-0.18278 0.26264,-0.17816 0.45483,0.014 0.15756,0.15756 0.21219,0.36074 0.12141,0.45152 z m 0.0669,1.18187 c 0,0.14719 -0.18063,0.26761 -0.4014,0.26761 -0.22078,0 -0.40141,-0.12042 -0.40141,-0.26761 0,-0.14718 0.18063,-0.2676 0.40141,-0.2676 0.22077,0 0.4014,0.12042 0.4014,0.2676 z m -1.87323,0.93662 c 0,0.22078 -0.18064,0.40141 -0.40141,0.40141 -0.22077,0 -0.40141,-0.18063 -0.40141,-0.40141 0,-0.22077 0.18064,-0.4014 0.40141,-0.4014 0.22077,0 0.40141,0.18063 0.40141,0.4014 z"
   id="path7941"
   inkscape:connector-curvature="0"
   sodipodi:nodetypes="ssccssscsssssssccssccscsscscccccccssccccscccsscccsscccscccsssssssssccscscscsscsscssscscccscsscscccssssscssscsccsccscscccsssssscsssc" /><path
   id="path7503"
   style="fill:none;fill-rule:evenodd;stroke:#000000;stroke-width:0.80000001;stroke-linecap:butt;stroke-linejoin:miter;stroke-miterlimit:4;stroke-dasharray:none;stroke-opacity:1"
   d="m 273.52777,339.96083 11.18107,0 0,9.90222 3.72702,0 0,18.39606 -14.90809,0 z m 3.72702,-97.55458 11.18107,0 0,70.74568 -3.72702,0 0,3.72345 -7.45405,0 z m -22.36215,0 0,126.59755 11.18108,0 0,-37.23458 18.63512,0 0,-7.44691 -14.90809,0 0,-81.91606 z m 74.5405,152.66175 -45.4697,0 0,33.51111 -10.43567,0 0,-51.3837 22.36215,0 0,-27.33236 26.08918,0 0,-10.64692 7.45404,0 z m -7.45404,-70.06305 11.18107,0 0,-127.28019 22.36215,0 0,40.95803 -14.90811,0 0,49.14964 14.90811,0 0,185.42818 -100.62968,0 0,-22.34075 -11.18107,0 0,-163.83213 3.72703,0 0,90.10768 18.63512,0 0,58.83063 26.08917,0 0,-33.51113 48.45132,0 0,26.0642 -7.45404,0 0,-18.61727 -33.54322,0 0,44.68149 33.54322,0 0,-17.87261 14.9081,0 0,-41.70272 -11.18108,0 0,-63.29878 -14.90809,0 z m -44.72431,-122.81204 18.63513,0 0,17.87259 14.1627,0 0,93.08643 -14.1627,0 0,-78.19259 -18.63513,0 z m -40.99728,17.87259 14.16271,0 0,-26.0642 52.92375,0 0,18.61729 14.90811,0 0,100.53334 3.72702,0 0,3.72345 3.72702,0 0,-126.59754 37.27025,0 0,55.85186 -14.9081,0 0,33.51112 14.9081,0 0,201.8114 -116.28319,0 0,-22.34075 -11.18107,0 0,-179.47065 11.18107,0 0,-44.68148 23.10757,0 0,-32.76643 -11.18109,0 0,26.0642 -22.36215,0"
   inkscape:connector-curvature="0"
   sodipodi:nodetypes="cccccccccccccccccccccccccccccccccccccccccccccccccccccccccccccccccccccccccccccccccccccccccccccccccccccccc" /><path
   style="fill:none;fill-rule:evenodd;stroke:#ff6347;stroke-width:0.80000001;stroke-linecap:butt;stroke-linejoin:round;stroke-miterlimit:3;stroke-dasharray:4.8000001, 0.80000001;stroke-dashoffset:0;stroke-opacity:1"
   d="m 232.1798,224.28422 22.36215,0 0,-26.06421 18.63513,0 0,40.95804 -22.36215,0 0,44.68149 0,89.36297 18.63513,0 0,59.57532 18.63511,0 0,-33.51111 44.72431,0 11.18108,0 0,33.51111 -18.63513,0"
   id="path7506"
   inkscape:connector-curvature="0" /><path
   style="fill:#ff6347;fill-rule:evenodd;stroke:none;stroke-width:0.80000001px;stroke-linecap:butt;stroke-linejoin:miter;stroke-opacity:1"
   d="m 250.78107,320.28555 -2.75645,-8.26143 2.75645,2.75381 2.75645,-2.75381 z"
   id="path7791"
   inkscape:connector-curvature="0" /><path
   inkscape:connector-curvature="0"
   id="path7793"
   d="m 269.44856,408.4075 -2.75645,-8.26143 2.75645,2.75381 2.75645,-2.75381 z"
   style="fill:#ff6347;fill-rule:evenodd;stroke:none;stroke-width:0.80000001px;stroke-linecap:butt;stroke-linejoin:miter;stroke-opacity:1" /><path
   style="fill:#ff6347;fill-rule:evenodd;stroke:none;stroke-width:0.80000001px;stroke-linecap:butt;stroke-linejoin:miter;stroke-opacity:1"
   d="m 288.17494,406.75522 -2.75645,8.26143 2.75645,-2.75381 2.75645,2.75381 z"
   id="path7795"
   inkscape:connector-curvature="0" /><path
   inkscape:connector-curvature="0"
   id="path7797"
   d="m 332.08458,432.91642 8.26935,-2.75381 -2.75645,2.75381 2.75645,2.75381 z"
   style="fill:#ff6347;fill-rule:evenodd;stroke:none;stroke-width:0.80000001px;stroke-linecap:butt;stroke-linejoin:miter;stroke-opacity:1" /><path
   style="fill:#ff6347;fill-rule:evenodd;stroke:none;stroke-width:0.80000001px;stroke-linecap:butt;stroke-linejoin:miter;stroke-opacity:1"
   d="m 273.20803,227.75751 -2.75645,-8.26144 2.75645,2.75382 2.75645,-2.75382 z"
   id="path7799"
   inkscape:connector-curvature="0" /><path
   inkscape:connector-curvature="0"
   id="path7801"
   d="m 242.24146,224.33112 -8.26935,2.75381 2.75645,-2.75381 -2.75645,-2.75381 z"
   style="fill:#ff6347;fill-rule:evenodd;stroke:none;stroke-width:0.80000001px;stroke-linecap:butt;stroke-linejoin:miter;stroke-opacity:1" /><ellipse
   style="color:#000000;clip-rule:nonzero;display:inline;overflow:visible;visibility:visible;opacity:1;isolation:auto;mix-blend-mode:normal;color-interpolation:sRGB;color-interpolation-filters:linearRGB;solid-color:#000000;solid-opacity:1;fill:#ffffff;fill-opacity:1;fill-rule:evenodd;stroke:#ff6347;stroke-width:0.99999994;stroke-linecap:round;stroke-linejoin:round;stroke-miterlimit:3;stroke-dasharray:none;stroke-dashoffset:0;stroke-opacity:1;color-rendering:auto;image-rendering:auto;shape-rendering:auto;text-rendering:auto;enable-background:accumulate"
   id="path7812"
   cx="273.30682"
   cy="-198.1965"
   transform="scale(1,-1)"
   rx="9.2341061"
   ry="9.2252665" /><ellipse
   transform="scale(1,-1)"
   cy="-239.53185"
   cx="273.09579"
   id="circle7821"
   style="color:#000000;clip-rule:nonzero;display:inline;overflow:visible;visibility:visible;opacity:1;isolation:auto;mix-blend-mode:normal;color-interpolation:sRGB;color-interpolation-filters:linearRGB;solid-color:#000000;solid-opacity:1;fill:#ffffff;fill-opacity:1;fill-rule:evenodd;stroke:#ff6347;stroke-width:0.99999994;stroke-linecap:round;stroke-linejoin:round;stroke-miterlimit:3;stroke-dasharray:none;stroke-dashoffset:0;stroke-opacity:1;color-rendering:auto;image-rendering:auto;shape-rendering:auto;text-rendering:auto;enable-background:accumulate"
   rx="9.2341061"
   ry="9.2252665" /><ellipse
   style="color:#000000;clip-rule:nonzero;display:inline;overflow:visible;visibility:visible;opacity:1;isolation:auto;mix-blend-mode:normal;color-interpolation:sRGB;color-interpolation-filters:linearRGB;solid-color:#000000;solid-opacity:1;fill:#ffffff;fill-opacity:1;fill-rule:evenodd;stroke:#ff6347;stroke-width:0.99999994;stroke-linecap:round;stroke-linejoin:round;stroke-miterlimit:3;stroke-dasharray:none;stroke-dashoffset:0;stroke-opacity:1;color-rendering:auto;image-rendering:auto;shape-rendering:auto;text-rendering:auto;enable-background:accumulate"
   id="circle7823"
   cx="250.82918"
   cy="-283.82587"
   transform="scale(1,-1)"
   rx="9.2341061"
   ry="9.2252665" /><ellipse
   transform="scale(1,-1)"
   cy="-373.24985"
   cx="269.39029"
   id="circle7825"
   style="color:#000000;clip-rule:nonzero;display:inline;overflow:visible;visibility:visible;opacity:1;isolation:auto;mix-blend-mode:normal;color-interpolation:sRGB;color-interpolation-filters:linearRGB;solid-color:#000000;solid-opacity:1;fill:#ffffff;fill-opacity:1;fill-rule:evenodd;stroke:#ff6347;stroke-width:0.99999994;stroke-linecap:round;stroke-linejoin:round;stroke-miterlimit:3;stroke-dasharray:none;stroke-dashoffset:0;stroke-opacity:1;color-rendering:auto;image-rendering:auto;shape-rendering:auto;text-rendering:auto;enable-background:accumulate"
   rx="9.2341061"
   ry="9.2252665" /><ellipse
   style="color:#000000;clip-rule:nonzero;display:inline;overflow:visible;visibility:visible;opacity:1;isolation:auto;mix-blend-mode:normal;color-interpolation:sRGB;color-interpolation-filters:linearRGB;solid-color:#000000;solid-opacity:1;fill:#ffffff;fill-opacity:1;fill-rule:evenodd;stroke:#ff6347;stroke-width:0.99999994;stroke-linecap:round;stroke-linejoin:round;stroke-miterlimit:3;stroke-dasharray:none;stroke-dashoffset:0;stroke-opacity:1;color-rendering:auto;image-rendering:auto;shape-rendering:auto;text-rendering:auto;enable-background:accumulate"
   id="circle7827"
   cx="333.29431"
   cy="-399.46445"
   transform="scale(1,-1)"
   rx="9.2341061"
   ry="9.2252665" /><text
   xml:space="preserve"
   style="font-style:normal;font-variant:normal;font-weight:normal;font-stretch:normal;font-size:10.6667px;line-height:0%;font-family:'EB Garamond';-inkscape-font-specification:'EB Garamond, Normal';font-variant-ligatures:normal;font-variant-caps:normal;font-variant-numeric:normal;font-variant-east-asian:normal;text-align:start;letter-spacing:0px;word-spacing:0px;writing-mode:lr-tb;text-anchor:start;fill:#000000;fill-opacity:1;stroke:none;stroke-width:1px;stroke-linecap:butt;stroke-linejoin:miter;stroke-opacity:1"
   x="270.58682"
   y="-194.81517"
   id="text7829"
   transform="scale(1,-1)"><tspan
     sodipodi:role="line"
     id="tspan7831"
     x="270.58682"
     y="-194.81517"
     style="font-style:normal;font-variant:normal;font-weight:normal;font-stretch:normal;font-size:10.6667px;line-height:1.25;font-family:'EB Garamond';-inkscape-font-specification:'EB Garamond, Normal';font-variant-ligatures:normal;font-variant-caps:normal;font-variant-numeric:normal;font-variant-east-asian:normal">1</tspan></text>
<text
   transform="scale(1,-1)"
   id="text7833"
   y="-235.83405"
   x="270.49442"
   style="font-style:normal;font-variant:normal;font-weight:normal;font-stretch:normal;font-size:10.6667px;line-height:0%;font-family:'EB Garamond';-inkscape-font-specification:'EB Garamond, Normal';font-variant-ligatures:normal;font-variant-caps:normal;font-variant-numeric:normal;font-variant-east-asian:normal;text-align:start;letter-spacing:0px;word-spacing:0px;writing-mode:lr-tb;text-anchor:start;fill:#000000;fill-opacity:1;stroke:none;stroke-width:1px;stroke-linecap:butt;stroke-linejoin:miter;stroke-opacity:1"
   xml:space="preserve"><tspan
     y="-235.83405"
     x="270.49442"
     id="tspan7835"
     sodipodi:role="line"
     style="font-style:normal;font-variant:normal;font-weight:normal;font-stretch:normal;font-size:10.6667px;line-height:1.25;font-family:'EB Garamond';-inkscape-font-specification:'EB Garamond, Normal';font-variant-ligatures:normal;font-variant-caps:normal;font-variant-numeric:normal;font-variant-east-asian:normal">2</tspan></text>
<text
   xml:space="preserve"
   style="font-style:normal;font-variant:normal;font-weight:normal;font-stretch:normal;font-size:10.6667px;line-height:0%;font-family:'EB Garamond';-inkscape-font-specification:'EB Garamond, Normal';font-variant-ligatures:normal;font-variant-caps:normal;font-variant-numeric:normal;font-variant-east-asian:normal;text-align:start;letter-spacing:0px;word-spacing:0px;writing-mode:lr-tb;text-anchor:start;fill:#000000;fill-opacity:1;stroke:none;stroke-width:1px;stroke-linecap:butt;stroke-linejoin:miter;stroke-opacity:1"
   x="248.20692"
   y="-280.70221"
   id="text7837"
   transform="scale(1,-1)"><tspan
     sodipodi:role="line"
     id="tspan7839"
     x="248.20692"
     y="-280.70221"
     style="font-style:normal;font-variant:normal;font-weight:normal;font-stretch:normal;font-size:10.6667px;line-height:1.25;font-family:'EB Garamond';-inkscape-font-specification:'EB Garamond, Normal';font-variant-ligatures:normal;font-variant-caps:normal;font-variant-numeric:normal;font-variant-east-asian:normal">3</tspan></text>
<text
   transform="scale(1,-1)"
   id="text7841"
   y="-369.84186"
   x="266.71829"
   style="font-style:normal;font-variant:normal;font-weight:normal;font-stretch:normal;font-size:10.6667px;line-height:0%;font-family:'EB Garamond';-inkscape-font-specification:'EB Garamond, Normal';font-variant-ligatures:normal;font-variant-caps:normal;font-variant-numeric:normal;font-variant-east-asian:normal;text-align:start;letter-spacing:0px;word-spacing:0px;writing-mode:lr-tb;text-anchor:start;fill:#000000;fill-opacity:1;stroke:none;stroke-width:1px;stroke-linecap:butt;stroke-linejoin:miter;stroke-opacity:1"
   xml:space="preserve"><tspan
     y="-369.84186"
     x="266.71829"
     id="tspan7843"
     sodipodi:role="line"
     style="font-style:normal;font-variant:normal;font-weight:normal;font-stretch:normal;font-size:10.6667px;line-height:1.25;font-family:'EB Garamond';-inkscape-font-specification:'EB Garamond, Normal';font-variant-ligatures:normal;font-variant-caps:normal;font-variant-numeric:normal;font-variant-east-asian:normal">4</tspan></text>
<text
   xml:space="preserve"
   style="font-style:normal;font-variant:normal;font-weight:normal;font-stretch:normal;font-size:10.6667px;line-height:0%;font-family:'EB Garamond';-inkscape-font-specification:'EB Garamond, Normal';font-variant-ligatures:normal;font-variant-caps:normal;font-variant-numeric:normal;font-variant-east-asian:normal;text-align:start;letter-spacing:0px;word-spacing:0px;writing-mode:lr-tb;text-anchor:start;fill:#000000;fill-opacity:1;stroke:none;stroke-width:1px;stroke-linecap:butt;stroke-linejoin:miter;stroke-opacity:1"
   x="330.18549"
   y="-396.14462"
   id="text7845"
   transform="scale(1,-1)"><tspan
     sodipodi:role="line"
     id="tspan7847"
     x="330.18549"
     y="-396.14462"
     style="font-style:normal;font-variant:normal;font-weight:normal;font-stretch:normal;font-size:10.6667px;line-height:1.25;font-family:'EB Garamond';-inkscape-font-specification:'EB Garamond, Normal';font-variant-ligatures:normal;font-variant-caps:normal;font-variant-numeric:normal;font-variant-east-asian:normal">5</tspan></text>
<path
   style="fill:none;fill-rule:evenodd;stroke:#ff6347;stroke-width:0.80000001px;stroke-linecap:round;stroke-linejoin:miter;stroke-opacity:1"
   d="m 310.12075,431.3192 -5.39431,4.7719"
   id="path8013"
   inkscape:connector-curvature="0" /><path
   style="fill:none;fill-rule:evenodd;stroke:#ff6347;stroke-width:0.80000001px;stroke-linecap:round;stroke-linejoin:miter;stroke-opacity:1"
   d="m 313.46262,435.75614 -4.56443,8.26437"
   id="path8015"
   inkscape:connector-curvature="0" /><path
   style="fill:none;fill-rule:evenodd;stroke:#ff6347;stroke-width:0.80000001px;stroke-linecap:round;stroke-linejoin:miter;stroke-opacity:1"
   d="m 311.63525,433.9196 -4.94479,5.32516"
   id="path8017"
   inkscape:connector-curvature="0" /><path
   style="fill:none;fill-rule:evenodd;stroke:#ff6347;stroke-width:0.80000001px;stroke-linecap:round;stroke-linejoin:miter;stroke-opacity:1"
   d="m 316.03822,437.09388 -0.17289,11.18774"
   id="path8020"
   inkscape:connector-curvature="0"
   sodipodi:nodetypes="cc" /><path
   style="fill:none;fill-rule:evenodd;stroke:#ff6347;stroke-width:0.80000001px;stroke-linecap:round;stroke-linejoin:miter;stroke-opacity:1"
   d="m 317.73895,436.708 5.49806,7.64195"
   id="path8022"
   inkscape:connector-curvature="0" /><path
   style="fill:none;fill-rule:evenodd;stroke:#ff6347;stroke-width:0.80000001px;stroke-linecap:round;stroke-linejoin:miter;stroke-opacity:1"
   d="m 320.11407,435.2612 5.56721,4.01116"
   id="path8024"
   inkscape:connector-curvature="0" /><path
   style="fill:none;fill-rule:evenodd;stroke:#ff6347;stroke-width:0.80000001px;stroke-linecap:round;stroke-linejoin:miter;stroke-opacity:1"
   d="m 322.94954,432.52946 4.01116,2.628"
   id="path8026"
   inkscape:connector-curvature="0" /><text
   transform="scale(1,-1)"
   id="text5230"
   y="-232.17834"
   x="235.16707"
   style="font-style:normal;font-variant:normal;font-weight:normal;font-stretch:normal;line-height:0%;font-family:'EB Garamond';-inkscape-font-specification:'EB Garamond, Normal';text-align:start;letter-spacing:0px;word-spacing:0px;writing-mode:lr-tb;text-anchor:start;fill:#000000;fill-opacity:1;stroke:none;stroke-width:1px;stroke-linecap:butt;stroke-linejoin:miter;stroke-opacity:1;font-size:10.66666666px;font-variant-ligatures:normal;font-variant-caps:normal;font-variant-numeric:normal;font-variant-east-asian:normal"
   xml:space="preserve"><tspan
     y="-232.17834"
     x="235.16707"
     id="tspan5232"
     sodipodi:role="line"
     style="line-height:1.25;-inkscape-font-specification:'EB Garamond, Normal';font-family:'EB Garamond';font-weight:normal;font-style:italic;font-stretch:normal;font-variant:normal;font-variant-ligatures:normal;font-variant-caps:normal;font-variant-numeric:normal;font-variant-east-asian:normal;font-size:10.66666666px">A</tspan></text>
<text
   xml:space="preserve"
   style="font-size:10.66666666px;line-height:0.65;font-family:'Times New Roman';-inkscape-font-specification:'Times New Roman, ';text-align:end;letter-spacing:1.2px;word-spacing:0px;text-anchor:end;stroke-width:0.8;font-weight:normal;font-style:normal;font-stretch:normal;font-variant:normal"
   x="179.73401"
   y="-340.31531"
   id="text27052"
   transform="scale(1,-1)"><tspan
     sodipodi:role="line"
     id="tspan27050"
     style="font-style:normal;font-variant:normal;font-weight:normal;font-stretch:normal;font-family:'Times New Roman';-inkscape-font-specification:'Times New Roman, ';stroke-width:0.8;font-size:10.66666666px"
     x="179.73401"
     y="-340.31531" /></text><text
   xml:space="preserve"
   style="font-size:10.66666666px;line-height:0.65;font-family:AppleGothic;-inkscape-font-specification:AppleGothic;text-align:end;letter-spacing:1.2px;word-spacing:0px;text-anchor:end;stroke-width:0.8"
   x="181.31133"
   y="-377.22141"
   id="text27056"
   transform="scale(1,-1)"><tspan
     sodipodi:role="line"
     id="tspan27054"
     style="font-style:normal;font-variant:normal;font-weight:normal;font-stretch:normal;font-family:'Times New Roman';-inkscape-font-specification:'Times New Roman, ';stroke-width:0.8;font-size:10.66666666px"
     x="181.31133"
     y="-377.22141" /></text><g
   id="g1045"
   transform="matrix(0.2486344,0,0,-0.2486344,287.95624,347.88899)"
   style="stroke-width:3.21758"><path
     style="fill:#96a820;stroke-width:3.21758"
     d="m 48.65,76.52 c 0,0 8.99,-6.82 22.43,-6.57 19.9,0.38 24.12,9.85 24.12,9.85 l 3.19,15.02 c 0,0 6.01,1.78 7.88,1.97 1.88,0.19 5.54,1.17 9.95,-1.92 4.41,-3.1 3.28,-6.52 5.44,-6.43 2.82,0.12 0.84,9.57 -1.6,12.58 -2.44,3 -13.33,8.73 -17.93,9.95 -4.6,1.22 -6.01,3.14 -10.79,3.24 -4.79,0.09 -16.8,-3.14 -16.8,-3.14 L 48.64,98.87 V 76.52 Z"
     id="path992" /><path
     style="fill:#70853b;stroke-width:3.21758"
     d="m 58.13,96.23 c 0,0 3.94,-7.04 10.98,-6.48 7.04,0.56 9.57,5.54 9.57,5.54 l -15.58,5.07 z"
     id="path994" /><path
     style="fill:#70853b;stroke-width:3.21758"
     d="m 94.26,105.34 c 4.97,1.6 6.85,1.41 6.85,1.41 0,0 2.91,-3.1 4.13,-5.73 1.22,-2.63 1.36,-4.13 1.36,-4.13 0,0 -1.92,-0.47 -3.71,-1.03 -1.78,-0.56 -5.35,-2.63 -5.35,-2.63 l -4.13,11.36 z"
     id="path996" /><path
     style="fill:#bed04a;stroke-width:3.21758"
     d="M 50.62,5.71 C 65.26,6.41 77.9,19.46 73.57,36.54 70.33,49.3 59.06,66.18 56.25,70.51 c -5.16,7.98 -10.7,23.46 4.83,25.11 22.21,2.35 5.81,-9.83 16.67,-17.34 5.7,-3.94 12.19,-2.7 16.37,0.3 5.45,3.92 20.62,46.06 -34.91,43.13 C 47.67,121.1 38.5,114.74 33.45,109.88 18.5,95.52 29.97,71.58 30.92,69.48 32.18,66.67 44,51.32 43.16,46.4 42.32,41.47 38.23,42.74 32.6,40.77 26.97,38.8 20.72,32.57 22.46,24.02 24.08,16.06 30.22,4.73 50.62,5.71 Z"
     id="path998" /><path
     style="fill:#e4dda2;stroke-width:3.21758"
     d="m 92.15,114.46 c 0,0 2.72,-2.46 3.66,-3.21 0.94,-0.75 5.3,-4.5 5.3,-4.5 0,0 6.93,-0.25 11.73,-2.25 5.96,-2.49 9.43,-8.73 9.9,-10.93 0.25,-1.19 -0.61,10.7 -9.15,16.47 -8.25,5.57 -21.44,4.42 -21.44,4.42 z"
     id="path1000" /><path
     style="fill:#e4dda2;stroke-width:3.21758"
     d="m 22.53,86.87 c -0.33,12.53 9.91,25.73 18.79,29.28 4.93,1.97 -15.77,-7.67 -14.08,-28.23 1.34,-16.35 17.81,-30.27 18.16,-39.56 0.21,-5.63 -6.76,-6.12 -6.76,-6.12 0,0 2.16,1.62 2.25,3.73 0.14,3.38 -8.59,15.77 -10.42,18.3 -1.81,2.54 -7.65,11.9 -7.94,22.6 z"
     id="path1002" /><path
     style="fill:#ee6d33;stroke-width:3.21758"
     d="m 25,30.07 4.32,4.69 c 0.21,-0.29 -4.72,4.71 -9.29,8.07 -3.06,2.25 -12.48,7.07 -12.98,6.59 -0.63,-0.61 2.28,-2.53 3.87,-3.94 1.21,-1.07 4.22,-3.78 4.22,-3.78 0,0 -3.71,0.4 -5.49,0.4 -1.78,0 -6.33,0.14 -5.91,-0.7 0.33,-0.66 6.88,-1.7 9.34,-2.7 C 20.49,35.7 25,30.07 25,30.07 Z"
     id="path1004" /><path
     style="fill:#323234;stroke-width:3.21758"
     d="M 42.88,15.21 C 40.31,17 37.81,16.55 37,15.05 c -0.6,-1.12 -0.77,-3.24 1.6,-5.03 2.09,-1.58 4.77,-1.1 5.75,0.26 0.82,1.15 0.48,3.58 -1.47,4.93 z"
     id="path1006" /><path
     style="fill:#323234;stroke-width:3.21758"
     d="m 54.91,26.87 c -3.07,1.8 -5.56,0.87 -6.62,-0.76 -0.86,-1.33 -0.66,-4.53 1.83,-5.97 2.58,-1.5 5.44,-0.96 6.54,0.83 0.92,1.5 0.59,4.53 -1.75,5.9 z"
     id="path1008" /><path
     style="fill:#e4dda2;stroke-width:3.21758"
     d="m 66.67,43.49 c -1.83,4.25 1.83,6.22 1.83,6.22 0,0 1.43,-3.05 2.04,-4.43 0.75,-1.71 1.48,-3.84 1.48,-3.84 0,0 -3.89,-1.35 -5.35,2.05 z"
     id="path1010" /><path
     style="fill:#e4dda2;stroke-width:3.21758"
     d="m 64.84,56.46 c 0,0 -2.53,-0.28 -4.79,-1.06 -2.05,-0.71 -5.5,-3.6 -7.6,0.14 -1.94,3.45 1.31,5.35 3.87,6.41 2.39,0.99 4.54,1.34 4.54,1.34 0,0 1.64,-2.75 2.11,-3.52 0.47,-0.77 1.87,-3.31 1.87,-3.31 z"
     id="path1012" /><path
     style="fill:#e4dda2;stroke-width:3.21758"
     d="m 56.25,70.52 c 0,0 -3.38,-0.19 -5.56,-0.75 -1.91,-0.49 -5.4,-2.82 -7.32,0.21 -1.71,2.7 0.77,4.84 4.08,5.7 3.66,0.95 5.77,0.67 5.77,0.67 0,0 0.88,-1.79 1.23,-2.78 0.37,-1.01 1.8,-3.05 1.8,-3.05 z"
     id="path1014" /><path
     style="fill:#e4dda2;stroke-width:3.21758"
     d="m 51.02,83.37 c 0,0 -4.08,0.56 -6.05,0.56 -2.04,0 -7.2,-0.48 -7.09,4.27 0.09,4.08 5.62,3.74 7.04,3.71 2.02,-0.05 7.29,-1 7.29,-1 0,0 -0.9,-1.6 -1.16,-3.84 -0.2,-1.64 -0.03,-3.7 -0.03,-3.7 z"
     id="path1016" /><path
     style="fill:#e4dda2;stroke-width:3.21758"
     d="m 55.12,93.84 c 0,0 -0.66,2.97 -1.62,5.14 -1.06,2.39 -3.52,6.48 1.48,8.38 4.62,1.76 6.48,-1.55 7.32,-5.28 0.78,-3.47 0.84,-6.3 0.84,-6.3 0,0 -2.44,-0.11 -4.46,-0.57 -1.62,-0.39 -3.56,-1.37 -3.56,-1.37 z"
     id="path1018" /><path
     style="fill:#e4dda2;stroke-width:3.21758"
     d="m 70.82,95.27 c 0,0 3.31,2.89 4.36,4.36 1.06,1.48 3.47,5.94 7.32,4.01 3.38,-1.69 0.65,-6.85 -0.99,-8.73 -1.37,-1.57 -3.45,-3.28 -5.42,-4.41 -1.32,-0.75 -2.44,-0.94 -2.44,-0.94 0,0 0.23,2.06 -0.38,3.52 -0.64,1.57 -2.45,2.19 -2.45,2.19 z"
     id="path1020" /><path
     style="fill:#e4dda2;stroke-width:3.21758"
     d="m 75.19,85.53 c 0.34,1.16 1.35,1.21 3.59,0.28 2.39,-0.99 5.63,-1.48 8.31,-1.48 3.17,0 6.26,2.11 7.39,3.03 1.13,0.92 2.49,1.24 2.7,-0.52 0.21,-1.76 -1.06,-3.73 -3.52,-5.49 -1.5,-1.07 -4.18,-2.72 -7.34,-2.79 -3.37,-0.07 -6.48,1.13 -8.45,2.39 -1.22,0.79 -3.25,2.68 -2.68,4.58 z"
     id="path1022" /></g></g></svg>
