<?xml version="1.0" encoding="UTF-8" standalone="no"?>
<!-- Created with Inkscape (http://www.inkscape.org/) -->

<svg
   width="83.815483mm"
   height="82.169052mm"
   viewBox="0 0 83.815483 82.169052"
   version="1.1"
   id="svg18473"
   xml:space="preserve"
   inkscape:version="1.2.2 (b0a8486, 2022-12-01)"
   sodipodi:docname="railway-switches.svg"
   xmlns:inkscape="http://www.inkscape.org/namespaces/inkscape"
   xmlns:sodipodi="http://sodipodi.sourceforge.net/DTD/sodipodi-0.dtd"
   xmlns="http://www.w3.org/2000/svg"
   xmlns:svg="http://www.w3.org/2000/svg"><sodipodi:namedview
     id="namedview18475"
     pagecolor="#ffffff"
     bordercolor="#666666"
     borderopacity="1.0"
     inkscape:showpageshadow="2"
     inkscape:pageopacity="0.0"
     inkscape:pagecheckerboard="0"
     inkscape:deskcolor="#d1d1d1"
     inkscape:document-units="mm"
     showgrid="false"
     showguides="true"
     inkscape:zoom="0.75226122"
     inkscape:cx="154.20175"
     inkscape:cy="264.53577"
     inkscape:window-width="1309"
     inkscape:window-height="396"
     inkscape:window-x="0"
     inkscape:window-y="0"
     inkscape:window-maximized="0"
     inkscape:current-layer="layer1" /><defs
     id="defs18470"><rect
       x="32.725143"
       y="429.32272"
       width="126.22556"
       height="78.696182"
       id="rect42783" /></defs><g
     inkscape:label="Layer 1"
     inkscape:groupmode="layer"
     id="layer1"
     transform="translate(-16.975288,-119.93962)"><text
       xml:space="preserve"
       transform="scale(0.26458333)"
       id="text42781"
       style="font-size:20px;line-height:0.65;font-family:'EB Garamond';-inkscape-font-specification:'EB Garamond, Normal';text-align:end;letter-spacing:1.5px;word-spacing:0px;white-space:pre;shape-inside:url(#rect42783)" /><rect
       style="font-variation-settings:normal;fill:#ff80b2;fill-opacity:1;stroke:none;stroke-width:0.264999;stroke-linecap:round;stroke-linejoin:round;stroke-miterlimit:4;stroke-dasharray:none;stroke-dashoffset:0;stroke-opacity:1;marker-end:url(#Arrow1L);stop-color:#000000"
       id="rect39711"
       width="83.815483"
       height="14.05766"
       x="16.975288"
       y="180.26022" /><rect
       style="font-variation-settings:normal;fill:#fefdfe;fill-opacity:1;stroke:#333333;stroke-width:0.264999;stroke-linecap:round;stroke-linejoin:round;stroke-miterlimit:4;stroke-dasharray:none;stroke-dashoffset:0;stroke-opacity:1;marker-end:url(#Arrow1L);stop-color:#000000"
       id="rect39783"
       width="2.5907249"
       height="12.224983"
       x="59.586678"
       y="189.56529" /><rect
       style="font-variation-settings:normal;fill:#fff6d5;fill-opacity:1;stroke:none;stroke-width:0.264999;stroke-linecap:round;stroke-linejoin:round;stroke-miterlimit:4;stroke-dasharray:none;stroke-dashoffset:0;stroke-opacity:1;marker-end:url(#Arrow1L);stop-color:#000000"
       id="rect39709"
       width="83.815483"
       height="14.05766"
       x="16.975288"
       y="159.6227" /><rect
       style="font-variation-settings:normal;fill:#00aad4;fill-opacity:1;stroke:none;stroke-width:0.264999;stroke-linecap:round;stroke-linejoin:round;stroke-miterlimit:4;stroke-dasharray:none;stroke-dashoffset:0;stroke-opacity:1;marker-end:url(#Arrow1L);stop-color:#000000"
       id="rect39499"
       width="83.815483"
       height="14.05766"
       x="16.975288"
       y="138.98517" /><path
       style="fill:#ffffff;fill-opacity:0.984234;stroke:#333333;stroke-width:0.264583px;stroke-linecap:butt;stroke-linejoin:miter;stroke-opacity:1"
       d="m 42.79041,169.89689 c 0,0 0.28916,1.53993 0.50498,2.29184 1.24723,4.42933 4.76167,4.62199 8.35161,5.59363 1.39693,0.38816 2.84786,0.65749 4.15638,1.28188 0.9853,0.47016 1.93282,1.06833 2.71913,1.82569 0.63423,0.61088 1.55379,2.13646 1.55379,2.13646 l -1.4761,0.97112 c 0,0 -1.04242,-1.1716 -1.67032,-1.63148 -0.86457,-0.63322 -1.84258,-1.11216 -2.83566,-1.51494 -0.9988,-0.40509 -2.05533,-0.66003 -3.10758,-0.89343 -1.21577,-0.26967 -2.50538,-0.19939 -3.69025,-0.58267 -1.00826,-0.32615 -1.98735,-0.80216 -2.83566,-1.43725 -0.95327,-0.71366 -1.81799,-1.5916 -2.44721,-2.6026 -0.64301,-1.03317 -1.00438,-2.23347 -1.28188,-3.41833 -0.17511,-0.74765 -0.23307,-2.29183 -0.23307,-2.29183 z"
       id="path33863"
       sodipodi:nodetypes="cccaaccaaaaaaacc" /><path
       style="fill:#ffffff;fill-opacity:0.984234;stroke:#333333;stroke-width:0.264583px;stroke-linecap:butt;stroke-linejoin:miter;stroke-opacity:1"
       d="m 62.32929,183.18177 c 0,0 0.98464,-1.59402 1.67032,-2.21415 2.05462,-1.9467 4.88117,-2.28048 7.22511,-3.10757 2.6662,-1.05134 5.83801,-2.28637 7.10858,-4.54483 0.33883,-0.62316 0.64511,-1.28411 0.77689,-1.98108 0.0914,-0.48346 0,-1.47609 0,-1.47609 l 2.71913,-0.15538 c 0,0 -0.087,1.49391 -0.27191,2.21414 -0.19076,0.74291 -0.48458,1.46459 -0.85458,2.13646 -0.78005,1.47682 -2.01821,2.54271 -3.3018,3.37949 -0.83551,0.54264 -1.73066,0.99468 -2.64144,1.39841 -1.77935,0.92513 -3.78834,1.09313 -5.51595,1.67032 -1.71996,0.65943 -3.44817,1.45878 -4.7002,2.64144 -0.33998,0.32643 -0.85459,1.12649 -0.85459,1.12649 z"
       id="path34591"
       sodipodi:nodetypes="ccccaccaccccccc" /><path
       style="fill:#333333;fill-opacity:1;stroke:#333333;stroke-width:0.265;stroke-linecap:round;stroke-linejoin:round;stroke-dasharray:none;stroke-opacity:1"
       d="m 42.65445,170.03284 0.71863,2.68029 0.21365,0.71863 -1.96166,1.00996 -0.62151,-1.94224 -0.36903,-1.72859 v -1.02938 l 1.96166,0.27191 z"
       id="path35319" /><path
       style="fill:#333333;fill-opacity:1;stroke:#333333;stroke-width:0.265;stroke-linecap:round;stroke-linejoin:round;stroke-dasharray:none;stroke-opacity:1"
       d="m 45.87856,176.01493 -1.24303,1.84512 0.87401,0.58267 0.97112,0.50498 1.90339,0.58267 h 0.89342 l 0.40787,-2.1753 -2.77739,-0.81574 z"
       id="path36047" /><path
       style="fill:#333333;fill-opacity:1;stroke:#333333;stroke-width:0.265;stroke-linecap:round;stroke-linejoin:round;stroke-dasharray:none;stroke-opacity:1"
       d="m 53.51154,178.38445 -0.23306,0.81574 -0.50499,1.10708 1.9034,0.60209 1.74801,1.00996 1.26245,-1.70917 -1.08765,-0.73805 -1.57321,-0.64093 z"
       id="path36049" /><path
       style="fill:#333333;fill-opacity:1;stroke:#333333;stroke-width:0.265;stroke-linecap:round;stroke-linejoin:round;stroke-dasharray:none;stroke-opacity:1"
       d="m 64.444286,180.68075 1.167384,1.47164 1.3984,-0.81574 2.01993,-0.81574 0.44671,-0.13596 -1.02241,-1.64643 -1.5996,0.51994 -1.76744,0.874 z"
       id="path36051"
       sodipodi:nodetypes="ccccccccc" /><path
       style="fill:#333333;fill-opacity:1;stroke:#333333;stroke-width:0.265;stroke-linecap:round;stroke-linejoin:round;stroke-dasharray:none;stroke-opacity:1"
       d="m 71.92393,177.58814 0.91285,1.96165 1.37898,-0.56324 1.76744,-0.85459 0.91285,-0.58267 -1.18477,-1.72859 -1.53436,0.7769 z"
       id="path36053" /><path
       style="fill:#333333;fill-opacity:1;stroke:#333333;stroke-width:0.265;stroke-linecap:round;stroke-linejoin:round;stroke-dasharray:none;stroke-opacity:1"
       d="m 79.088815,169.5678 c 0.187713,1.35549 -0.139809,2.48907 -0.67783,3.70858 l -0.15538,0.38844 1.98108,0.91285 0.874,-1.32072 0.46614,-1.59263 0.23307,-1.94223 z"
       id="path36055"
       sodipodi:nodetypes="cccccccc" /><rect
       style="font-variation-settings:normal;fill:#333333;fill-opacity:1;stroke:#333333;stroke-width:0.265;stroke-linecap:round;stroke-linejoin:round;stroke-miterlimit:4;stroke-dasharray:none;stroke-dashoffset:0;stroke-opacity:1;marker-end:url(#Arrow1L);stop-color:#000000"
       id="rect40475"
       width="2.5907249"
       height="3.8535206"
       x="59.586678"
       y="189.56529" /><rect
       style="font-variation-settings:normal;fill:#333333;fill-opacity:1;stroke:#333333;stroke-width:0.264999;stroke-linecap:round;stroke-linejoin:round;stroke-miterlimit:4;stroke-dasharray:none;stroke-dashoffset:0;stroke-opacity:1;marker-end:url(#Arrow1L);stop-color:#000000"
       id="rect41098"
       width="2.5907249"
       height="4.4309115"
       x="59.586678"
       y="197.19635" /><path
       style="fill:#ffffff;fill-opacity:0.617117;stroke:#333333;stroke-width:0.264583px;stroke-linecap:butt;stroke-linejoin:miter;stroke-opacity:1"
       d="m 30.417594,149.80688 c -0.16,4.46476 1.16097,6.83888 3.24518,8.11865 2.23295,1.3711 4.20819,2.48973 5.65424,4.6262 v 0.65922 l 1.81284,-0.54935 2.08753,0.32961 c 0.5092,-1.38737 0.73343,-2.62191 1.55655,-3.66193 1.00597,-1.27106 2.97005,-1.90391 3.91869,-2.87958 1.82783,-1.83617 3.31456,-4.11541 3.25934,-6.53295 l -2.19739,-0.3296 c -0.22767,3.05848 -0.24582,3.0479 -1.02938,4.29382 -1.44892,2.30391 -4.80701,2.90059 -6.33191,5.15494 -0.6555,0.96906 -1.04376,3.35102 -1.04376,3.35102 0,0 -0.69286,-1.10059 -1.04376,-1.64804 -2.30926,-4.47542 -5.84759,-2.871 -7.1415,-7.19645 l -0.76909,-3.90036 z"
       id="path30266"
       sodipodi:nodetypes="csccccacccaaccccc" /><path
       style="fill:#333333;fill-opacity:1;stroke:#333333;stroke-width:0.264583px;stroke-linecap:butt;stroke-linejoin:miter;stroke-opacity:1"
       d="m 30.912004,154.06432 2.00512,-0.68668 -0.63175,-3.51582 -1.78538,0.0549 0.19227,2.7742 z"
       id="path32472" /><path
       style="fill:#333333;fill-opacity:1;stroke:#333333;stroke-width:0.264583px;stroke-linecap:butt;stroke-linejoin:miter;stroke-opacity:1"
       d="m 35.032104,156.50892 -1.18109,1.40083 1.6755,1.01629 2.03259,1.45577 1.48324,-1.23603 -1.31844,-1.07123 -1.26349,-0.79655 z"
       id="path32474" /><path
       style="fill:#333333;fill-opacity:1;stroke:#333333;stroke-width:0.264583px;stroke-linecap:butt;stroke-linejoin:miter;stroke-opacity:1"
       d="m 49.864474,149.75195 v 1.29096 l -0.32961,1.62058 -0.49441,0.98882 1.40083,0.60428 0.71415,-1.09869 0.57682,-1.84031 0.13733,-1.3459 z"
       id="path32476" /><path
       style="fill:#333333;fill-opacity:1;stroke:#333333;stroke-width:0.264583px;stroke-linecap:butt;stroke-linejoin:miter;stroke-opacity:1"
       d="m 46.321184,156.12437 1.31843,1.01629 -1.15363,0.68669 -0.90642,0.57681 -0.68668,0.60428 -0.65922,0.98883 -1.56564,-1.15363 1.0987,-1.20856 1.40083,-0.79656 z"
       id="path32478"
       sodipodi:nodetypes="cccccccccc" /><g
       id="g33135"
       transform="matrix(-1,0,0,1,121.2686,0)"><path
         style="fill:#ffffff;fill-opacity:0.617117;stroke:#333333;stroke-width:0.264583px;stroke-linecap:butt;stroke-linejoin:miter;stroke-opacity:1"
         d="m 29.499925,149.80688 c -0.16,4.46476 1.16097,6.83888 3.24518,8.11865 1.850153,1.5276 4.983933,3.14922 5.65424,5.28542 l 1.81284,-0.54935 2.08753,0.32961 c 0.5092,-1.38737 0.73343,-2.62191 1.55655,-3.66193 1.00597,-1.27106 2.97005,-1.90391 3.91869,-2.87958 1.82783,-1.83617 3.31456,-4.11541 3.25934,-6.53295 l -2.19739,-0.3296 c -0.22767,3.05848 -0.24582,3.0479 -1.02938,4.29382 -1.44892,2.30391 -4.80701,2.90059 -6.33191,5.15494 -0.6555,0.96906 -1.04376,3.35102 -1.04376,3.35102 0,0 -0.69286,-1.10059 -1.04376,-1.64804 -2.30926,-4.47542 -5.84759,-2.871 -7.1415,-7.19645 l -0.76909,-3.90036 z"
         id="path33123"
         sodipodi:nodetypes="cccccacccaaccccc" /><circle
         style="font-variation-settings:normal;fill:#ffffff;fill-opacity:0.981982;stroke:#333333;stroke-width:0.499999;stroke-linecap:round;stroke-linejoin:round;stroke-miterlimit:4;stroke-dasharray:none;stroke-dashoffset:0;stroke-opacity:1;marker-end:url(#Arrow1L);stop-color:#000000"
         id="circle33125"
         cx="40.374916"
         cy="166.30722"
         r="3.6000004" /><path
         style="fill:#333333;fill-opacity:1;stroke:#333333;stroke-width:0.264583px;stroke-linecap:butt;stroke-linejoin:miter;stroke-opacity:1"
         d="m 29.994335,154.06432 2.00512,-0.68668 -0.63175,-3.51582 -1.78538,0.0549 0.19227,2.7742 z"
         id="path33127" /><path
         style="fill:#333333;fill-opacity:1;stroke:#333333;stroke-width:0.264583px;stroke-linecap:butt;stroke-linejoin:miter;stroke-opacity:1"
         d="m 34.114435,156.50892 -1.18109,1.40083 1.48229,1.18803 2.10751,1.48118 1.60153,-1.43318 -1.31844,-1.07123 -1.26349,-0.79655 z"
         id="path33129"
         sodipodi:nodetypes="cccccccc" /><path
         style="fill:#333333;fill-opacity:1;stroke:#333333;stroke-width:0.264583px;stroke-linecap:butt;stroke-linejoin:miter;stroke-opacity:1"
         d="m 48.946805,149.75195 v 1.29096 l -0.32961,1.62058 -0.49441,0.98882 1.40083,0.60428 0.71415,-1.09869 0.57682,-1.84031 0.13733,-1.3459 z"
         id="path33131" /><path
         style="fill:#333333;fill-opacity:1;stroke:#333333;stroke-width:0.264583px;stroke-linecap:butt;stroke-linejoin:miter;stroke-opacity:1"
         d="m 45.403515,156.12437 1.31843,1.01629 -1.15363,0.68669 -0.90642,0.57681 -0.68668,0.60428 -0.65922,0.98883 -1.56564,-1.15363 1.0987,-1.20856 1.40083,-0.79656 z"
         id="path33133"
         sodipodi:nodetypes="cccccccccc" /></g><g
       id="g25854"
       transform="translate(-1.5875)"><g
         id="g19949"
         style="fill:#ffffff;fill-opacity:0.981982;stroke:#333333;stroke-linecap:round;stroke-linejoin:round"><path
           style="fill:#ffffff;fill-opacity:0.981982;stroke:#333333;stroke-width:0.264583px;stroke-linecap:round;stroke-linejoin:round;stroke-opacity:1"
           d="m 86.908872,127.35004 h 2.537486 c 0,0 -0.05273,1.98242 -0.0793,3.09257 -0.375259,2.49562 0.07885,4.57011 1.03085,6.74019 0.41653,0.95183 0.870007,1.58677 1.348038,2.53749 0.478031,0.95072 1.506633,3.17185 1.506633,3.17185 l -1.427334,0.23789 -0.713669,0.55508 c 0,0 0.0077,-1.03122 -0.237889,-1.66523 -0.245572,-0.63401 -0.834155,-1.26727 -1.348039,-1.98241 -2.854322,-3.37775 -2.212338,-5.32957 -2.378897,-9.19838 -0.05378,-1.20295 -0.237879,-3.48905 -0.237879,-3.48905 z"
           id="path19943"
           sodipodi:nodetypes="cccczccczccc" /><path
           style="fill:#ffffff;fill-opacity:0.981982;stroke:#333333;stroke-width:0.264583px;stroke-linecap:round;stroke-linejoin:round;stroke-opacity:1"
           d="m 99.123041,127.35004 -2.276789,0.27209 c 0,0 -0.428766,-1.1985 -0.181397,2.82048 0.247369,4.01898 -1.022879,5.42138 -2.495458,8.01873 -0.478031,0.95072 -0.916818,4.4308 -0.916818,4.4308 l 0.954089,0.23789 0.946134,0.68736 c 0.595615,-1.32082 0.369082,-3.40185 1.143637,-4.5726 1.635032,-2.33785 2.482893,-4.56515 2.588723,-8.4057 0.05378,-1.20295 0.237879,-3.48905 0.237879,-3.48905 z"
           id="path19945"
           sodipodi:nodetypes="cczccccccc" /></g><path
         style="fill:#333333;stroke:#333333;stroke-width:0.264583px;stroke-linecap:round;stroke-linejoin:round;stroke-opacity:1"
         d="m 86.908872,127.35004 0.261644,4.23637 2.077823,0.0429 0.198019,-4.27928 z"
         id="path20695" /><path
         style="fill:#333333;stroke:#333333;stroke-width:0.264583px;stroke-linecap:round;stroke-linejoin:round;stroke-opacity:1"
         d="m 87.311277,135.50834 2.135081,-0.69017 0.951548,2.36463 0.692605,1.34236 -1.991889,0.98416 -0.835309,-1.23851 -0.690416,-1.57393 z"
         id="path20697"
         sodipodi:nodetypes="cccccccc" /><path
         style="fill:#333333;fill-opacity:1;stroke:#333333;stroke-width:0.264583px;stroke-linecap:round;stroke-linejoin:round;stroke-opacity:1"
         d="m 96.585555,127.35004 0.104071,4.46631 2.157251,-0.18704 0.134107,-2.3785 0.142057,-1.90077 z"
         id="path20699" /><path
         style="fill:#333333;stroke:#333333;stroke-width:0.264583px;stroke-linecap:round;stroke-linejoin:round;stroke-opacity:1"
         d="m 95.88979,139.99501 c 0.855265,-1.30577 1.511051,-2.82082 2.159251,-4.05029 l -2.114838,-0.65537 -0.781973,1.49752 -0.982834,1.67447 -0.275948,0.81447 z"
         id="path25738"
         sodipodi:nodetypes="ccccccc" /><circle
         style="font-variation-settings:normal;opacity:1;fill:#ffffff;fill-opacity:0.981982;stroke:#333333;stroke-width:0.499999;stroke-linecap:round;stroke-linejoin:round;stroke-miterlimit:4;stroke-dasharray:none;stroke-dashoffset:0;stroke-opacity:1;marker-end:url(#Arrow1L);stop-color:#000000;stop-opacity:1"
         id="path25792"
         cx="93.106636"
         cy="146.34657"
         r="3.6000004" /></g><g
       id="g25872"
       transform="matrix(-1,0,0,1,164.33608,0)"><g
         id="g25860"
         style="fill:#ffffff;fill-opacity:0.981982;stroke:#333333;stroke-linecap:round;stroke-linejoin:round"><path
           style="fill:#ffffff;fill-opacity:0.981982;stroke:#333333;stroke-width:0.264583px;stroke-linecap:round;stroke-linejoin:round;stroke-opacity:1"
           d="m 86.908872,127.35004 h 2.537486 c 0,0 -0.05273,1.98242 -0.0793,3.09257 -0.375259,2.49562 0.07885,4.57011 1.03085,6.74019 0.41653,0.95183 0.870007,1.58677 1.348038,2.53749 0.478031,0.95072 1.506633,3.17185 1.506633,3.17185 l -1.427334,0.23789 -0.713669,0.55508 c 0,0 0.0077,-1.03122 -0.237889,-1.66523 -0.245572,-0.63401 -0.834155,-1.26727 -1.348039,-1.98241 -2.854322,-3.37775 -2.212338,-5.32957 -2.378897,-9.19838 -0.05378,-1.20295 -0.237879,-3.48905 -0.237879,-3.48905 z"
           id="path25856"
           sodipodi:nodetypes="cccczccczccc" /><path
           style="fill:#ffffff;fill-opacity:0.981982;stroke:#333333;stroke-width:0.264583px;stroke-linecap:round;stroke-linejoin:round;stroke-opacity:1"
           d="m 99.123041,127.35004 -2.276789,0.27209 c 0,0 -0.428766,-1.1985 -0.181397,2.82048 0.247369,4.01898 -1.022879,5.42138 -2.495458,8.01873 -0.478031,0.95072 -0.916818,4.4308 -0.916818,4.4308 l 0.954089,0.23789 0.946134,0.68736 c 0.595615,-1.32082 0.369082,-3.40185 1.143637,-4.5726 1.635032,-2.33785 2.482893,-4.56515 2.588723,-8.4057 0.05378,-1.20295 0.237879,-3.48905 0.237879,-3.48905 z"
           id="path25858"
           sodipodi:nodetypes="cczccccccc" /></g><path
         style="fill:#333333;stroke:#333333;stroke-width:0.264583px;stroke-linecap:round;stroke-linejoin:round;stroke-opacity:1"
         d="m 86.908872,127.35004 0.261644,4.23637 2.077823,0.0429 0.198019,-4.27928 z"
         id="path25862" /><path
         style="fill:#333333;stroke:#333333;stroke-width:0.264583px;stroke-linecap:round;stroke-linejoin:round;stroke-opacity:1"
         d="m 87.311277,135.50834 2.135081,-0.69017 0.951548,2.36463 0.692605,1.34236 -1.991889,0.98416 -0.835309,-1.23851 -0.690416,-1.57393 z"
         id="path25864"
         sodipodi:nodetypes="cccccccc" /><path
         style="fill:#333333;fill-opacity:1;stroke:#333333;stroke-width:0.264583px;stroke-linecap:round;stroke-linejoin:round;stroke-opacity:1"
         d="m 96.585555,127.35004 0.104071,4.46631 2.157251,-0.18704 0.134107,-2.3785 0.142057,-1.90077 z"
         id="path25866" /><path
         style="fill:#333333;stroke:#333333;stroke-width:0.264583px;stroke-linecap:round;stroke-linejoin:round;stroke-opacity:1"
         d="m 95.88979,139.99501 c 0.855265,-1.30577 1.511051,-2.82082 2.159251,-4.05029 l -2.114838,-0.65537 -0.781973,1.49752 -0.982834,1.67447 -0.275948,0.81447 z"
         id="path25868"
         sodipodi:nodetypes="ccccccc" /><circle
         style="font-variation-settings:normal;opacity:1;fill:#ffffff;fill-opacity:0.981982;stroke:#333333;stroke-width:0.499999;stroke-linecap:round;stroke-linejoin:round;stroke-miterlimit:4;stroke-dasharray:none;stroke-dashoffset:0;stroke-opacity:1;marker-end:url(#Arrow1L);stop-color:#000000;stop-opacity:1"
         id="circle25870"
         cx="93.106636"
         cy="146.34657"
         r="3.6000004" /></g><g
       id="g25908"
       transform="matrix(-1,0,0,1,123.59025,0)"><g
         id="g25896"
         style="fill:#ffffff;fill-opacity:0.981982;stroke:#333333;stroke-linecap:round;stroke-linejoin:round"><path
           style="fill:#ffffff;fill-opacity:0.981982;stroke:#333333;stroke-width:0.264583px;stroke-linecap:round;stroke-linejoin:round;stroke-opacity:1"
           d="m 86.908872,127.35004 h 2.537486 c 0,0 -0.05273,1.98242 -0.0793,3.09257 -0.375259,2.49562 0.07885,4.57011 1.03085,6.74019 0.41653,0.95183 0.870007,1.58677 1.348038,2.53749 0.478031,0.95072 1.506633,3.17185 1.506633,3.17185 l -1.427334,0.23789 -0.713669,0.55508 c 0,0 0.0077,-1.03122 -0.237889,-1.66523 -0.245572,-0.63401 -0.834155,-1.26727 -1.348039,-1.98241 -2.854322,-3.37775 -2.212338,-5.32957 -2.378897,-9.19838 -0.05378,-1.20295 -0.237879,-3.48905 -0.237879,-3.48905 z"
           id="path25892"
           sodipodi:nodetypes="cccczccczccc" /><path
           style="fill:#ffffff;fill-opacity:0.981982;stroke:#333333;stroke-width:0.264583px;stroke-linecap:round;stroke-linejoin:round;stroke-opacity:1"
           d="m 99.123041,127.35004 -2.276789,0.27209 c 0,0 -0.428766,-1.1985 -0.181397,2.82048 0.247369,4.01898 -1.022879,5.42138 -2.495458,8.01873 -0.478031,0.95072 -0.916818,4.4308 -0.916818,4.4308 l 0.954089,0.23789 0.946134,0.68736 c 0.595615,-1.32082 0.369082,-3.40185 1.143637,-4.5726 1.635032,-2.33785 2.482893,-4.56515 2.588723,-8.4057 0.05378,-1.20295 0.237879,-3.48905 0.237879,-3.48905 z"
           id="path25894"
           sodipodi:nodetypes="cczccccccc" /></g><path
         style="fill:#333333;stroke:#333333;stroke-width:0.264583px;stroke-linecap:round;stroke-linejoin:round;stroke-opacity:1"
         d="m 86.908872,127.35004 0.261644,4.23637 2.077823,0.0429 0.198019,-4.27928 z"
         id="path25898" /><path
         style="fill:#333333;stroke:#333333;stroke-width:0.264583px;stroke-linecap:round;stroke-linejoin:round;stroke-opacity:1"
         d="m 87.311277,135.50834 2.135081,-0.69017 0.951548,2.36463 0.692605,1.34236 -1.991889,0.98416 -0.835309,-1.23851 -0.690416,-1.57393 z"
         id="path25900"
         sodipodi:nodetypes="cccccccc" /><path
         style="fill:#333333;fill-opacity:1;stroke:#333333;stroke-width:0.264583px;stroke-linecap:round;stroke-linejoin:round;stroke-opacity:1"
         d="m 96.585555,127.35004 0.104071,4.46631 2.157251,-0.18704 0.134107,-2.3785 0.142057,-1.90077 z"
         id="path25902" /><path
         style="fill:#333333;stroke:#333333;stroke-width:0.264583px;stroke-linecap:round;stroke-linejoin:round;stroke-opacity:1"
         d="m 95.88979,139.99501 c 0.855265,-1.30577 1.511051,-2.82082 2.159251,-4.05029 l -2.114838,-0.65537 -0.781973,1.49752 -0.982834,1.67447 -0.275948,0.81447 z"
         id="path25904"
         sodipodi:nodetypes="ccccccc" /><circle
         style="font-variation-settings:normal;opacity:1;fill:#ffffff;fill-opacity:0.981982;stroke:#333333;stroke-width:0.499999;stroke-linecap:round;stroke-linejoin:round;stroke-miterlimit:4;stroke-dasharray:none;stroke-dashoffset:0;stroke-opacity:1;marker-end:url(#Arrow1L);stop-color:#000000;stop-opacity:1"
         id="circle25906"
         cx="93.106636"
         cy="146.34657"
         r="3.6000004" /></g><path
       id="path41878"
       style="font-variation-settings:normal;fill:none;fill-opacity:1;stroke:#d40055;stroke-width:0.264999;stroke-linecap:round;stroke-linejoin:round;stroke-miterlimit:4;stroke-dasharray:none;stroke-dashoffset:0;stroke-opacity:1;marker-end:url(#Arrow1L);stop-color:#000000"
       inkscape:transform-center-x="0.0046164994"
       inkscape:transform-center-y="-0.51163327"
       d="m 66.637089,194.9592 -1.79989,3.0856 1.154968,0.005 v 3.92637 h 1.261939 v -3.92069 l 1.155485,0.005 z"
       sodipodi:nodetypes="cccccccc" /><path
       style="fill:none;stroke:#ff0000;stroke-width:0.75;stroke-linecap:butt;stroke-linejoin:miter;stroke-dasharray:none;stroke-opacity:1"
       d="m 62.894847,201.48506 c 0,0 0.518558,-5.66303 0.369244,-8.49265 -0.08745,-1.65715 -0.361308,-3.30726 -0.738489,-4.92328 -0.48955,-2.09746 -0.794498,-4.34887 -1.969312,-6.15409 -1.077888,-1.65628 -2.723124,-2.94441 -4.430948,-3.93862 -5.436323,-1.30227 -10.434752,-2.40907 -11.938942,-5.53869 -0.698427,-1.53027 -1.108384,-3.24115 -1.107739,-4.92327 5e-4,-1.30387 0.518141,-2.55771 0.861574,-3.81554 0.302867,-5.21856 5.762545,-5.60306 7.384566,-9.24233 0.447757,-1.14722 0.912482,-3.00664 1.231166,-4.54284 0.463175,-2.23271 0.483766,-4.54495 0.984655,-6.76951 1.368081,-4.63395 3.360304,-4.82722 3.938622,-9.60039 0.25366,-2.00101 0.492326,-10.97874 0.492326,-10.97874"
       id="path42039"
       sodipodi:nodetypes="caaaccaccaccc" /><circle
       style="font-variation-settings:normal;fill:#ffffff;fill-opacity:0.981982;stroke:#333333;stroke-width:0.499999;stroke-linecap:round;stroke-linejoin:round;stroke-miterlimit:4;stroke-dasharray:none;stroke-dashoffset:0;stroke-opacity:1;marker-end:url(#Arrow1L);stop-color:#000000"
       id="circle31734"
       cx="41.292583"
       cy="166.30722"
       r="3.6000004" /><circle
       style="font-variation-settings:normal;fill:#ffffff;fill-opacity:0.981982;stroke:#333333;stroke-width:0.499999;stroke-linecap:round;stroke-linejoin:round;stroke-miterlimit:4;stroke-dasharray:none;stroke-dashoffset:0;stroke-opacity:1;marker-end:url(#Arrow1L);stop-color:#000000"
       id="circle36059"
       cx="-60.867111"
       cy="186.61319"
       r="3.6000004"
       transform="scale(-1,1)" /><g
       id="g25890"
       transform="translate(-42.333335)"><g
         id="g25878"
         style="fill:#ffffff;fill-opacity:0.981982;stroke:#333333;stroke-linecap:round;stroke-linejoin:round"><path
           style="fill:#ffffff;fill-opacity:0.981982;stroke:#333333;stroke-width:0.264583px;stroke-linecap:round;stroke-linejoin:round;stroke-opacity:1"
           d="m 86.908872,127.35004 h 2.537486 c 0,0 -0.05273,1.98242 -0.0793,3.09257 -0.375259,2.49562 0.07885,4.57011 1.03085,6.74019 0.41653,0.95183 0.870007,1.58677 1.348038,2.53749 0.478031,0.95072 1.506633,3.17185 1.506633,3.17185 l -1.427334,0.23789 -0.713669,0.55508 c 0,0 0.0077,-1.03122 -0.237889,-1.66523 -0.245572,-0.63401 -0.834155,-1.26727 -1.348039,-1.98241 -2.854322,-3.37775 -2.212338,-5.32957 -2.378897,-9.19838 -0.05378,-1.20295 -0.237879,-3.48905 -0.237879,-3.48905 z"
           id="path25874"
           sodipodi:nodetypes="cccczccczccc" /><path
           style="fill:#ffffff;fill-opacity:0.981982;stroke:#333333;stroke-width:0.264583px;stroke-linecap:round;stroke-linejoin:round;stroke-opacity:1"
           d="m 99.123041,127.35004 -2.276789,0.27209 c 0,0 -0.428766,-1.1985 -0.181397,2.82048 0.247369,4.01898 -1.022879,5.42138 -2.495458,8.01873 -0.478031,0.95072 -0.916818,4.4308 -0.916818,4.4308 l 0.954089,0.23789 0.946134,0.68736 c 0.595615,-1.32082 0.369082,-3.40185 1.143637,-4.5726 1.635032,-2.33785 2.482893,-4.56515 2.588723,-8.4057 0.05378,-1.20295 0.237879,-3.48905 0.237879,-3.48905 z"
           id="path25876"
           sodipodi:nodetypes="cczccccccc" /></g><path
         style="fill:#333333;stroke:#333333;stroke-width:0.264583px;stroke-linecap:round;stroke-linejoin:round;stroke-opacity:1"
         d="m 86.908872,127.35004 0.261644,4.23637 2.077823,0.0429 0.198019,-4.27928 z"
         id="path25880" /><path
         style="fill:#333333;stroke:#333333;stroke-width:0.264583px;stroke-linecap:round;stroke-linejoin:round;stroke-opacity:1"
         d="m 87.311277,135.50834 2.135081,-0.69017 0.951548,2.36463 0.692605,1.34236 -1.991889,0.98416 -0.835309,-1.23851 -0.690416,-1.57393 z"
         id="path25882"
         sodipodi:nodetypes="cccccccc" /><path
         style="fill:#333333;fill-opacity:1;stroke:#333333;stroke-width:0.264583px;stroke-linecap:round;stroke-linejoin:round;stroke-opacity:1"
         d="m 96.585555,127.35004 0.104071,4.46631 2.157251,-0.18704 0.134107,-2.3785 0.142057,-1.90077 z"
         id="path25884" /><path
         style="fill:#333333;stroke:#333333;stroke-width:0.264583px;stroke-linecap:round;stroke-linejoin:round;stroke-opacity:1"
         d="m 95.88979,139.99501 c 0.855265,-1.30577 1.511051,-2.82082 2.159251,-4.05029 l -2.114838,-0.65537 -0.781973,1.49752 -0.982834,1.67447 -0.275948,0.81447 z"
         id="path25886"
         sodipodi:nodetypes="ccccccc" /><circle
         style="font-variation-settings:normal;opacity:1;fill:#ffffff;fill-opacity:0.981982;stroke:#333333;stroke-width:0.499999;stroke-linecap:round;stroke-linejoin:round;stroke-miterlimit:4;stroke-dasharray:none;stroke-dashoffset:0;stroke-opacity:1;marker-end:url(#Arrow1L);stop-color:#000000;stop-opacity:1"
         id="circle25888"
         cx="93.106636"
         cy="146.34657"
         r="3.6000004" /></g><text
       xml:space="preserve"
       style="font-style:italic;font-variant:normal;font-weight:normal;font-stretch:normal;font-size:3.88056px;line-height:0.65;font-family:'EB Garamond';-inkscape-font-specification:'EB Garamond, Italic';font-variant-ligatures:normal;font-variant-caps:normal;font-variant-numeric:normal;font-variant-east-asian:normal;text-align:end;letter-spacing:0.396875px;word-spacing:0px;text-anchor:end;stroke-width:0.264583"
       x="22.677094"
       y="130.26268"
       id="text42775"><tspan
         sodipodi:role="line"
         id="tspan42773"
         style="font-style:italic;font-variant:normal;font-weight:normal;font-stretch:normal;font-size:3.88056px;font-family:'EB Garamond';-inkscape-font-specification:'EB Garamond, Italic';font-variant-ligatures:normal;font-variant-caps:normal;font-variant-numeric:normal;font-variant-east-asian:normal;stroke-width:0.264583"
         x="23.073969"
         y="130.26268">A</tspan></text><text
       xml:space="preserve"
       style="font-style:italic;font-variant:normal;font-weight:normal;font-stretch:normal;font-size:3.88056px;line-height:0.65;font-family:'EB Garamond';-inkscape-font-specification:'EB Garamond, Italic';font-variant-ligatures:normal;font-variant-caps:normal;font-variant-numeric:normal;font-variant-east-asian:normal;text-align:end;letter-spacing:0.396875px;word-spacing:0px;text-anchor:end;stroke-width:0.264583"
       x="33.260426"
       y="130.26268"
       id="text42779"><tspan
         sodipodi:role="line"
         id="tspan42777"
         style="font-style:italic;font-variant:normal;font-weight:normal;font-stretch:normal;font-size:3.88056px;font-family:'EB Garamond';-inkscape-font-specification:'EB Garamond, Italic';font-variant-ligatures:normal;font-variant-caps:normal;font-variant-numeric:normal;font-variant-east-asian:normal;stroke-width:0.264583"
         x="33.657299"
         y="130.26268">B</tspan></text><text
       xml:space="preserve"
       style="font-style:italic;font-variant:normal;font-weight:normal;font-stretch:normal;font-size:3.88056px;line-height:0.65;font-family:'EB Garamond';-inkscape-font-specification:'EB Garamond, Italic';font-variant-ligatures:normal;font-variant-caps:normal;font-variant-numeric:normal;font-variant-east-asian:normal;text-align:end;letter-spacing:0.396875px;word-spacing:0px;text-anchor:end;stroke-width:0.264583"
       x="42.785427"
       y="130.26268"
       id="text42789"><tspan
         sodipodi:role="line"
         id="tspan42787"
         style="font-style:italic;font-variant:normal;font-weight:normal;font-stretch:normal;font-size:3.88056px;font-family:'EB Garamond';-inkscape-font-specification:'EB Garamond, Italic';font-variant-ligatures:normal;font-variant-caps:normal;font-variant-numeric:normal;font-variant-east-asian:normal;stroke-width:0.264583"
         x="43.182301"
         y="130.26268">C</tspan></text><text
       xml:space="preserve"
       style="font-style:italic;font-variant:normal;font-weight:normal;font-stretch:normal;font-size:3.88056px;line-height:0.65;font-family:'EB Garamond';-inkscape-font-specification:'EB Garamond, Italic';font-variant-ligatures:normal;font-variant-caps:normal;font-variant-numeric:normal;font-variant-east-asian:normal;text-align:end;letter-spacing:0.396875px;word-spacing:0px;text-anchor:end;stroke-width:0.264583"
       x="52.839596"
       y="130.26268"
       id="text42793"><tspan
         sodipodi:role="line"
         id="tspan42791"
         style="font-style:italic;font-variant:normal;font-weight:normal;font-stretch:normal;font-size:3.88056px;font-family:'EB Garamond';-inkscape-font-specification:'EB Garamond, Italic';font-variant-ligatures:normal;font-variant-caps:normal;font-variant-numeric:normal;font-variant-east-asian:normal;stroke-width:0.264583"
         x="53.236469"
         y="130.26268">D</tspan></text><text
       xml:space="preserve"
       style="font-style:italic;font-variant:normal;font-weight:normal;font-stretch:normal;font-size:3.88056px;line-height:0.65;font-family:'EB Garamond';-inkscape-font-specification:'EB Garamond, Italic';font-variant-ligatures:normal;font-variant-caps:normal;font-variant-numeric:normal;font-variant-east-asian:normal;text-align:end;letter-spacing:0.396875px;word-spacing:0px;text-anchor:end;stroke-width:0.264583"
       x="63.952095"
       y="130.26268"
       id="text42797"><tspan
         sodipodi:role="line"
         id="tspan42795"
         style="font-style:italic;font-variant:normal;font-weight:normal;font-stretch:normal;font-size:3.88056px;font-family:'EB Garamond';-inkscape-font-specification:'EB Garamond, Italic';font-variant-ligatures:normal;font-variant-caps:normal;font-variant-numeric:normal;font-variant-east-asian:normal;stroke-width:0.264583"
         x="64.348969"
         y="130.26268">E</tspan></text><text
       xml:space="preserve"
       style="font-style:italic;font-variant:normal;font-weight:normal;font-stretch:normal;font-size:3.88056px;line-height:0.65;font-family:'EB Garamond';-inkscape-font-specification:'EB Garamond, Italic';font-variant-ligatures:normal;font-variant-caps:normal;font-variant-numeric:normal;font-variant-east-asian:normal;text-align:end;letter-spacing:0.396875px;word-spacing:0px;text-anchor:end;stroke-width:0.264583"
       x="73.477089"
       y="130.26268"
       id="text42801"><tspan
         sodipodi:role="line"
         id="tspan42799"
         style="font-style:italic;font-variant:normal;font-weight:normal;font-stretch:normal;font-size:3.88056px;font-family:'EB Garamond';-inkscape-font-specification:'EB Garamond, Italic';font-variant-ligatures:normal;font-variant-caps:normal;font-variant-numeric:normal;font-variant-east-asian:normal;stroke-width:0.264583"
         x="73.873962"
         y="130.26268">F</tspan></text><text
       xml:space="preserve"
       style="font-style:italic;font-variant:normal;font-weight:normal;font-stretch:normal;font-size:3.88056px;line-height:0.65;font-family:'EB Garamond';-inkscape-font-specification:'EB Garamond, Italic';font-variant-ligatures:normal;font-variant-caps:normal;font-variant-numeric:normal;font-variant-east-asian:normal;text-align:end;letter-spacing:0.396875px;word-spacing:0px;text-anchor:end;stroke-width:0.264583"
       x="83.531258"
       y="130.26268"
       id="text42805"><tspan
         sodipodi:role="line"
         id="tspan42803"
         style="font-style:italic;font-variant:normal;font-weight:normal;font-stretch:normal;font-size:3.88056px;font-family:'EB Garamond';-inkscape-font-specification:'EB Garamond, Italic';font-variant-ligatures:normal;font-variant-caps:normal;font-variant-numeric:normal;font-variant-east-asian:normal;stroke-width:0.264583"
         x="83.928131"
         y="130.26268">G</tspan></text><text
       xml:space="preserve"
       style="font-style:italic;font-variant:normal;font-weight:normal;font-stretch:normal;font-size:3.88056px;line-height:0.65;font-family:'EB Garamond';-inkscape-font-specification:'EB Garamond, Italic';font-variant-ligatures:normal;font-variant-caps:normal;font-variant-numeric:normal;font-variant-east-asian:normal;text-align:end;letter-spacing:0.396875px;word-spacing:0px;text-anchor:end;stroke-width:0.264583"
       x="94.114586"
       y="130.26268"
       id="text42809"><tspan
         sodipodi:role="line"
         id="tspan42807"
         style="font-style:italic;font-variant:normal;font-weight:normal;font-stretch:normal;font-size:3.88056px;font-family:'EB Garamond';-inkscape-font-specification:'EB Garamond, Italic';font-variant-ligatures:normal;font-variant-caps:normal;font-variant-numeric:normal;font-variant-east-asian:normal;stroke-width:0.264583"
         x="94.511459"
         y="130.26268">H</tspan></text><text
       xml:space="preserve"
       style="font-size:3.88056px;line-height:0.65;font-family:'EB Garamond';-inkscape-font-specification:'EB Garamond, Normal';text-align:end;letter-spacing:0.396875px;word-spacing:0px;text-anchor:end;stroke-width:0.264583"
       x="61.940083"
       y="187.41258"
       id="text42813"><tspan
         sodipodi:role="line"
         id="tspan42811"
         style="font-style:italic;font-variant:normal;font-weight:normal;font-stretch:normal;font-size:3.88056px;font-family:'EB Garamond';-inkscape-font-specification:'EB Garamond Italic';stroke-width:0.264583"
         x="62.336956"
         y="187.41258">a</tspan></text><text
       xml:space="preserve"
       style="font-size:3.88056px;line-height:0.65;font-family:'EB Garamond';-inkscape-font-specification:'EB Garamond, Normal';text-align:end;letter-spacing:0.396875px;word-spacing:0px;text-anchor:end;stroke-width:0.264583"
       x="42.137791"
       y="167.40659"
       id="text42817"><tspan
         sodipodi:role="line"
         id="tspan42815"
         style="font-style:italic;font-variant:normal;font-weight:normal;font-stretch:normal;font-size:3.88056px;font-family:'EB Garamond';-inkscape-font-specification:'EB Garamond Italic';stroke-width:0.264583"
         x="42.534664"
         y="167.40659">b</tspan></text><text
       xml:space="preserve"
       style="font-size:3.88056px;line-height:0.65;font-family:'EB Garamond';-inkscape-font-specification:'EB Garamond, Normal';text-align:end;letter-spacing:0.396875px;word-spacing:0px;text-anchor:end;stroke-width:0.264583"
       x="81.436958"
       y="167.1796"
       id="text42821"><tspan
         sodipodi:role="line"
         id="tspan42819"
         style="font-style:italic;font-variant:normal;font-weight:normal;font-stretch:normal;font-size:3.88056px;font-family:'EB Garamond';-inkscape-font-specification:'EB Garamond Italic';stroke-width:0.264583"
         x="81.833832"
         y="167.1796">c</tspan></text><text
       xml:space="preserve"
       style="font-size:3.88056px;line-height:0.65;font-family:'EB Garamond';-inkscape-font-specification:'EB Garamond, Normal';text-align:end;letter-spacing:0.396875px;word-spacing:0px;text-anchor:end;stroke-width:0.264583"
       x="31.467331"
       y="147.6873"
       id="text42825"><tspan
         sodipodi:role="line"
         id="tspan42823"
         style="font-style:italic;font-variant:normal;font-weight:normal;font-stretch:normal;font-size:3.88056px;font-family:'EB Garamond';-inkscape-font-specification:'EB Garamond Italic';stroke-width:0.264583"
         x="31.864206"
         y="147.6873">d</tspan></text><text
       xml:space="preserve"
       style="font-size:3.88056px;line-height:0.65;font-family:'EB Garamond';-inkscape-font-specification:'EB Garamond, Normal';text-align:end;letter-spacing:0.396875px;word-spacing:0px;text-anchor:end;stroke-width:0.264583"
       x="51.396778"
       y="146.99068"
       id="text42829"><tspan
         sodipodi:role="line"
         id="tspan42827"
         style="font-style:italic;font-variant:normal;font-weight:normal;font-stretch:normal;font-size:3.88056px;font-family:'EB Garamond';-inkscape-font-specification:'EB Garamond Italic';stroke-width:0.264583"
         x="51.793652"
         y="146.99068">e</tspan></text><text
       xml:space="preserve"
       style="font-size:3.88056px;line-height:0.65;font-family:'EB Garamond';-inkscape-font-specification:'EB Garamond, Normal';text-align:end;letter-spacing:0.396875px;word-spacing:0px;text-anchor:end;stroke-width:0.264583"
       x="71.875557"
       y="147.15373"
       id="text42833"><tspan
         sodipodi:role="line"
         id="tspan42831"
         style="font-style:italic;font-variant:normal;font-weight:normal;font-stretch:normal;font-size:3.88056px;font-family:'EB Garamond';-inkscape-font-specification:'EB Garamond Italic';stroke-width:0.264583"
         x="72.27243"
         y="147.15373">f</tspan></text><text
       xml:space="preserve"
       style="font-size:3.88056px;line-height:0.65;font-family:'EB Garamond';-inkscape-font-specification:'EB Garamond, Normal';text-align:end;letter-spacing:0.396875px;word-spacing:0px;text-anchor:end;stroke-width:0.264583"
       x="92.460167"
       y="146.60883"
       id="text42837"><tspan
         sodipodi:role="line"
         id="tspan42835"
         style="font-style:italic;font-variant:normal;font-weight:normal;font-stretch:normal;font-size:3.88056px;font-family:'EB Garamond';-inkscape-font-specification:'EB Garamond Italic';stroke-width:0.264583"
         x="92.85704"
         y="146.60883">g</tspan></text><text
       xml:space="preserve"
       style="font-size:3.88056px;line-height:0.65;font-family:'EB Garamond';-inkscape-font-specification:'EB Garamond, Normal';text-align:end;letter-spacing:0.396875px;word-spacing:0px;text-anchor:end;stroke-width:0.264583"
       x="54.591854"
       y="185.83847"
       id="text42841"><tspan
         sodipodi:role="line"
         id="tspan42839"
         style="font-size:3.88056px;stroke-width:0.264583"
         x="54.988728"
         y="185.83847">0</tspan></text><text
       xml:space="preserve"
       style="font-size:3.88056px;line-height:0.65;font-family:'EB Garamond';-inkscape-font-specification:'EB Garamond, Normal';text-align:end;letter-spacing:0.396875px;word-spacing:0px;text-anchor:end;stroke-width:0.264583"
       x="68.350189"
       y="185.83847"
       id="text42845"><tspan
         sodipodi:role="line"
         id="tspan42843"
         style="font-size:3.88056px;stroke-width:0.264583"
         x="68.747063"
         y="185.83847">1</tspan></text><g
       id="g42875"><text
         xml:space="preserve"
         style="font-size:3.88056px;line-height:0.65;font-family:'EB Garamond';-inkscape-font-specification:'EB Garamond, Normal';text-align:end;letter-spacing:0.396875px;word-spacing:0px;text-anchor:end;stroke-width:0.264583"
         x="35.818317"
         y="165.12195"
         id="text42849"><tspan
           sodipodi:role="line"
           id="tspan42847"
           style="font-size:3.88056px;stroke-width:0.264583"
           x="36.215191"
           y="165.12195">0</tspan></text><text
         xml:space="preserve"
         style="font-size:3.88056px;line-height:0.65;font-family:'EB Garamond';-inkscape-font-specification:'EB Garamond, Normal';text-align:end;letter-spacing:0.396875px;word-spacing:0px;text-anchor:end;stroke-width:0.264583"
         x="48.518318"
         y="165.12195"
         id="text42853"><tspan
           sodipodi:role="line"
           id="tspan42851"
           style="font-size:3.88056px;stroke-width:0.264583"
           x="48.915192"
           y="165.12195">1</tspan></text></g><g
       id="g42885"
       transform="translate(39.158336)"><text
         xml:space="preserve"
         style="font-size:3.88056px;line-height:0.65;font-family:'EB Garamond';-inkscape-font-specification:'EB Garamond, Normal';text-align:end;letter-spacing:0.396875px;word-spacing:0px;text-anchor:end;stroke-width:0.264583"
         x="35.818317"
         y="165.12195"
         id="text42879"><tspan
           sodipodi:role="line"
           id="tspan42877"
           style="font-size:3.88056px;stroke-width:0.264583"
           x="36.215191"
           y="165.12195">0</tspan></text><text
         xml:space="preserve"
         style="font-size:3.88056px;line-height:0.65;font-family:'EB Garamond';-inkscape-font-specification:'EB Garamond, Normal';text-align:end;letter-spacing:0.396875px;word-spacing:0px;text-anchor:end;stroke-width:0.264583"
         x="48.518318"
         y="165.12195"
         id="text42883"><tspan
           sodipodi:role="line"
           id="tspan42881"
           style="font-size:3.88056px;stroke-width:0.264583"
           x="48.915192"
           y="165.12195">1</tspan></text></g><g
       id="g42895"
       transform="translate(50.270837,-21.166667)"><text
         xml:space="preserve"
         style="font-size:3.88056px;line-height:0.65;font-family:'EB Garamond';-inkscape-font-specification:'EB Garamond, Normal';text-align:end;letter-spacing:0.396875px;word-spacing:0px;text-anchor:end;stroke-width:0.264583"
         x="35.818317"
         y="165.12195"
         id="text42889"><tspan
           sodipodi:role="line"
           id="tspan42887"
           style="font-size:3.88056px;stroke-width:0.264583"
           x="36.215191"
           y="165.12195">0</tspan></text><text
         xml:space="preserve"
         style="font-size:3.88056px;line-height:0.65;font-family:'EB Garamond';-inkscape-font-specification:'EB Garamond, Normal';text-align:end;letter-spacing:0.396875px;word-spacing:0px;text-anchor:end;stroke-width:0.264583"
         x="48.518318"
         y="165.12195"
         id="text42893"><tspan
           sodipodi:role="line"
           id="tspan42891"
           style="font-size:3.88056px;stroke-width:0.264583"
           x="48.915192"
           y="165.12195">1</tspan></text></g><g
       id="g42905"
       transform="translate(29.633336,-21.166667)"><text
         xml:space="preserve"
         style="font-size:3.88056px;line-height:0.65;font-family:'EB Garamond';-inkscape-font-specification:'EB Garamond, Normal';text-align:end;letter-spacing:0.396875px;word-spacing:0px;text-anchor:end;stroke-width:0.264583"
         x="35.818317"
         y="165.12195"
         id="text42899"><tspan
           sodipodi:role="line"
           id="tspan42897"
           style="font-size:3.88056px;stroke-width:0.264583"
           x="36.215191"
           y="165.12195">0</tspan></text><text
         xml:space="preserve"
         style="font-size:3.88056px;line-height:0.65;font-family:'EB Garamond';-inkscape-font-specification:'EB Garamond, Normal';text-align:end;letter-spacing:0.396875px;word-spacing:0px;text-anchor:end;stroke-width:0.264583"
         x="48.518318"
         y="165.12195"
         id="text42903"><tspan
           sodipodi:role="line"
           id="tspan42901"
           style="font-size:3.88056px;stroke-width:0.264583"
           x="48.915192"
           y="165.12195">1</tspan></text></g><g
       id="g42915"
       transform="translate(9.5250017,-21.166667)"><text
         xml:space="preserve"
         style="font-size:3.88056px;line-height:0.65;font-family:'EB Garamond';-inkscape-font-specification:'EB Garamond, Normal';text-align:end;letter-spacing:0.396875px;word-spacing:0px;text-anchor:end;stroke-width:0.264583"
         x="35.818317"
         y="165.12195"
         id="text42909"><tspan
           sodipodi:role="line"
           id="tspan42907"
           style="font-size:3.88056px;stroke-width:0.264583"
           x="36.215191"
           y="165.12195">0</tspan></text><text
         xml:space="preserve"
         style="font-size:3.88056px;line-height:0.65;font-family:'EB Garamond';-inkscape-font-specification:'EB Garamond, Normal';text-align:end;letter-spacing:0.396875px;word-spacing:0px;text-anchor:end;stroke-width:0.264583"
         x="48.518318"
         y="165.12195"
         id="text42913"><tspan
           sodipodi:role="line"
           id="tspan42911"
           style="font-size:3.88056px;stroke-width:0.264583"
           x="48.915192"
           y="165.12195">1</tspan></text></g><g
       id="g42925"
       transform="translate(-11.112498,-21.166667)"><text
         xml:space="preserve"
         style="font-size:3.88056px;line-height:0.65;font-family:'EB Garamond';-inkscape-font-specification:'EB Garamond, Normal';text-align:end;letter-spacing:0.396875px;word-spacing:0px;text-anchor:end;stroke-width:0.264583"
         x="35.818317"
         y="165.12195"
         id="text42919"><tspan
           sodipodi:role="line"
           id="tspan42917"
           style="font-size:3.88056px;stroke-width:0.264583"
           x="36.215191"
           y="165.12195">0</tspan></text><text
         xml:space="preserve"
         style="font-size:3.88056px;line-height:0.65;font-family:'EB Garamond';-inkscape-font-specification:'EB Garamond, Normal';text-align:end;letter-spacing:0.396875px;word-spacing:0px;text-anchor:end;stroke-width:0.264583"
         x="48.518318"
         y="165.12195"
         id="text42923"><tspan
           sodipodi:role="line"
           id="tspan42921"
           style="font-size:3.88056px;stroke-width:0.264583"
           x="48.915192"
           y="165.12195">1</tspan></text></g><text
       xml:space="preserve"
       style="font-size:3.88056px;line-height:0.65;font-family:'EB Garamond';-inkscape-font-specification:'EB Garamond, Normal';text-align:end;letter-spacing:0px;word-spacing:0px;text-anchor:end;stroke-width:0.264583"
       x="65.43528"
       y="122.41154"
       id="text42929"><tspan
         sodipodi:role="line"
         id="tspan42927"
         style="font-size:3.88056px;stroke-width:0.264583"
         x="65.43528"
         y="122.41154">011</tspan></text></g></svg>
